<?xml version="1.0" encoding="utf-8"?>
<!-- Generator: Adobe Illustrator 27.5.0, SVG Export Plug-In . SVG Version: 6.00 Build 0)  -->
<svg version="1.1" xmlns="http://www.w3.org/2000/svg" xmlns:xlink="http://www.w3.org/1999/xlink" x="0px" y="0px"
	 viewBox="0 0 499.999 500" style="enable-background:new 0 0 499.999 500;" xml:space="preserve">
<g id="BACKGROUND">
	<rect x="-0.001" y="0.001" style="fill:#F8E1E9;" width="500" height="500"/>
</g>
<g id="OBJECTS">
	<g>
		<g>
			<path style="fill:#FFFFFF;" d="M188.361,163.595c0.018-28.817,3.813-70.55,12.556-99.961
				c23.427,20.721,39.921,60.07,52.735,87.404c-28.544-9.089-67.918-26.659-88.835-39.531c29.68-8.992,60.267-15.087,91.037-18.836
				C242.336,115.651,208.616,146.716,188.361,163.595"/>
			<g>
				<path style="fill:#FFFFFF;" d="M198.361,163.595c0.087-32.504,3.037-66.009,12.198-97.303
					c-5.571,1.471-11.143,2.942-16.714,4.413c24.749,22.269,37.379,55.898,51.172,85.38c3.765-4.897,7.528-9.794,11.293-14.69
					c-29.79-9.566-59.699-22.193-86.446-38.523c-0.796,6.093-1.593,12.185-2.389,18.277c28.86-8.681,58.472-14.788,88.379-18.479
					c-2.878-5.016-5.756-10.031-8.635-15.047c-8.089,13.53-19.159,25.147-30.207,36.28c-11.357,11.444-23.35,22.285-35.723,32.62
					c-4.188,3.499-3.595,10.548,0,14.143c4.11,4.11,9.963,3.491,14.143,0c12.777-10.675,25.094-21.911,36.822-33.729
					c11.845-11.935,23.571-24.729,32.234-39.219c3.54-5.921-0.886-16.004-8.635-15.047c-31.717,3.914-63.073,9.982-93.695,19.193
					c-8.337,2.507-9.855,13.719-2.389,18.277c28.162,17.194,59.863,30.469,91.224,40.539c9.077,2.915,14.743-7.314,11.293-14.69
					c-14.557-31.115-28.182-65.928-54.299-89.428c-5.579-5.02-14.525-3.065-16.714,4.413
					c-9.632,32.901-12.822,68.436-12.913,102.619C178.326,176.494,198.326,176.491,198.361,163.595L198.361,163.595z"/>
			</g>
		</g>
		<g>
			<g>
				<path style="fill:#FBD407;" d="M188.361,163.595c0.018-28.817,3.813-70.55,12.556-99.961
					c23.427,20.721,39.921,60.07,52.735,87.404c-28.544-9.089-67.918-26.659-88.835-39.531c29.68-8.992,60.267-15.087,91.037-18.836
					C242.336,115.651,208.616,146.716,188.361,163.595"/>
				<g>
					<path style="fill:#FBD407;" d="M190.861,163.595c0.089-33.141,3.127-67.396,12.466-99.296
						c-1.393,0.368-2.786,0.735-4.178,1.103c25.26,22.729,38.265,56.803,52.344,86.898c0.941-1.224,1.883-2.448,2.824-3.672
						c-30.384-9.756-60.955-22.621-88.238-39.279c-0.199,1.523-0.398,3.046-0.597,4.569c29.522-8.88,59.785-14.972,90.372-18.747
						c-0.72-1.254-1.439-2.508-2.158-3.762c-8.409,14.064-19.892,26.222-31.38,37.797c-11.357,11.445-23.351,22.285-35.722,32.621
						c-2.477,2.069,1.08,5.587,3.535,3.535c12.777-10.675,25.094-21.91,36.823-33.729c11.407-11.495,22.715-23.741,31.061-37.701
						c0.886-1.48-0.221-4.001-2.158-3.762c-31.039,3.831-61.739,9.913-91.702,18.925c-2.084,0.627-2.464,3.43-0.597,4.569
						c27.624,16.867,58.665,29.904,89.432,39.783c2.27,0.729,3.687-1.829,2.824-3.672c-14.273-30.507-27.517-64.867-53.127-87.91
						c-1.395-1.255-3.631-0.767-4.178,1.103c-9.454,32.293-12.555,67.079-12.645,100.625
						C185.852,166.82,190.852,166.819,190.861,163.595L190.861,163.595z"/>
				</g>
			</g>
			<g>
				<g>
					<g>
						<g>
							<g>
								<path style="fill:#FFFFFF;" d="M199.274,123.894c12.252,0,12.252-19,0-19C187.021,104.894,187.021,123.894,199.274,123.894
									L199.274,123.894z"/>
							</g>
						</g>
						<g>
							<g>
								<path style="fill:#753585;" d="M199.274,120.094c7.352,0,7.352-11.4,0-11.4
									C191.922,108.694,191.922,120.094,199.274,120.094L199.274,120.094z"/>
							</g>
						</g>
					</g>
					<g>
						<g>
							<g>
								<path style="fill:#FFFFFF;" d="M224.93,119.709c12.253,0,12.253-19,0-19C212.678,100.709,212.678,119.709,224.93,119.709
									L224.93,119.709z"/>
							</g>
						</g>
						<g>
							<g>
								<path style="fill:#753585;" d="M224.93,115.909c7.352,0,7.352-11.4,0-11.4C217.579,104.508,217.579,115.909,224.93,115.909
									L224.93,115.909z"/>
							</g>
						</g>
					</g>
				</g>
				<g>
					<g>
						<path style="fill:#753585;" d="M204.22,125.336c2.011,13.672,22.034,10.388,18.542-3.31
							C222.762,122.026,209.885,123.872,204.22,125.336"/>
					</g>
					<g>
						<path style="fill:#FFFFFF;" d="M209.511,126.416c0.324,0.873,0.918,2.016,1.986,2.07c1.37,0.069,2.296-1.027,2.497-2.293
							c0.146-0.913,0.08-1.863-0.127-2.771c-1.62,0.275-3.292,0.572-4.862,0.874C209.104,125.018,209.258,125.738,209.511,126.416z"
							/>
					</g>
					<g>
						<path style="fill:#FFFFFF;" d="M217.903,127.114c0.582-0.162,1.214-0.431,1.521-0.986c0.264-0.478,0.322-1.028,0.263-1.564
							c-0.076-0.689-0.285-1.351-0.545-1.993c-1.293,0.2-2.829,0.445-4.455,0.716C215.029,124.973,215.807,127.698,217.903,127.114z
							"/>
					</g>
				</g>
				<g>
					<g>
						<g>
							<path style="fill:#FF43B9;" d="M195.778,137.874c6.449,0,6.449-10,0-10C189.329,127.874,189.329,137.874,195.778,137.874
								L195.778,137.874z"/>
						</g>
					</g>
					<g>
						<g>
							<path style="fill:#FF43B9;" d="M235.285,130.279c6.449,0,6.449-10,0-10S228.836,130.279,235.285,130.279L235.285,130.279z"/>
						</g>
					</g>
				</g>
			</g>
		</g>
	</g>
	<g>
		<g>
			<path style="fill:#FFFFFF;" d="M241.346,366.419c-3.797-20.887-35.217-31.919-43.506-7.329
				c-9.319,27.646,20.722,61.759,41.607,78.848c20.253-13.291,53.295-50.569,45.038-78.645
				c-3.857-13.113-16.557-17.557-26.051-15.025C248.942,346.799,242.186,358.799,241.346,366.419"/>
			<g>
				<path style="fill:#FFFFFF;" d="M248.578,364.425c-2.647-12.899-13.493-23.307-26.245-26.167
					c-15.152-3.398-27.622,5.834-32.106,20.044c-5.092,16.14,1.82,33.676,10.226,47.342c8.803,14.309,20.771,26.941,33.691,37.598
					c2.511,2.071,6.109,3.158,9.088,1.172c12.581-8.384,23.131-19.354,32.245-31.339c9.492-12.48,17.078-27.433,17.79-43.335
					c0.731-16.36-9.498-31.254-26.191-33.395c-16.512-2.118-30.751,12.321-32.962,28.08c-0.568,4.046,0.92,8.038,5.238,9.227
					c3.552,0.977,8.656-1.183,9.226-5.238c1.313-9.353,8.281-19.313,18.713-16.88c11.001,2.565,12.084,15.53,10.133,24.668
					c-2.541,11.906-9.604,22.849-17.177,32.175c-7.045,8.677-15.259,16.87-24.585,23.086c3.029,0.391,6.059,0.781,9.088,1.172
					c-9.76-8.05-18.855-17.138-26.411-27.306c-7.533-10.137-14.478-22.197-14.745-35.143c-0.196-9.48,4.417-18.115,13.922-17.592
					c8.01,0.44,14.992,7.998,16.598,15.819C236.058,377.885,250.516,373.867,248.578,364.425L248.578,364.425z"/>
			</g>
		</g>
		<g>
			<g>
				<path style="fill:#9C47B1;" d="M241.346,366.419c-3.797-20.887-35.217-31.919-43.506-7.329
					c-9.319,27.646,20.722,61.759,41.607,78.848c20.253-13.291,53.295-50.569,45.038-78.645
					c-3.857-13.113-16.557-17.557-26.051-15.025C248.942,346.799,242.186,358.799,241.346,366.419"/>
			</g>
			<g>
				<g>
					<g>
						<g>
							<g>
								<path style="fill:#FFFFFF;" d="M226.981,396.129c12.252,0,12.252-19,0-19C214.729,377.129,214.729,396.129,226.981,396.129
									L226.981,396.129z"/>
							</g>
						</g>
						<g>
							<g>
								<path style="fill:#753585;" d="M226.981,392.33c7.352,0,7.352-11.4,0-11.4C219.629,380.929,219.629,392.33,226.981,392.33
									L226.981,392.33z"/>
							</g>
						</g>
					</g>
					<g>
						<g>
							<g>
								<path style="fill:#FFFFFF;" d="M255.118,396.473c12.253,0,12.253-19,0-19C242.865,377.473,242.865,396.473,255.118,396.473
									L255.118,396.473z"/>
							</g>
						</g>
						<g>
							<g>
								<path style="fill:#753585;" d="M255.118,392.673c7.352,0,7.352-11.4,0-11.4
									C247.766,381.273,247.766,392.673,255.118,392.673L255.118,392.673z"/>
							</g>
						</g>
					</g>
				</g>
				<g>
					<g>
						<path style="fill:#753585;" d="M230.989,398.899c-0.586,13.807,19.697,14.333,18.833,0.224
							C249.822,399.123,236.829,398.523,230.989,398.899"/>
					</g>
					<g>
						<path style="fill:#6CDADE;" d="M246.062,404.753c-0.649-1.026-1.861-1.656-3.086-1.496c-1.222,0.16-2.252,0.878-3.059,1.778
							c-0.03,0.034-0.084,0.006-0.085-0.035c-0.048-1.791-2.199-2.012-3.532-1.536c-1.413,0.503-2.189,1.752-2.651,3.107
							c3.447,3.557,9.426,3.87,13.078,0.787C246.699,406.432,246.551,405.526,246.062,404.753z"/>
					</g>
					<g>
						<path style="fill:#FFFFFF;" d="M238.09,401.346c1.333-0.094,1.887-1.315,2.044-2.531c-1.439-0.025-2.902-0.042-4.292-0.039
							C236.042,400.055,236.664,401.448,238.09,401.346z"/>
					</g>
					<g>
						<path style="fill:#FFFFFF;" d="M243.389,401.499c1.463-0.141,1.767-1.316,1.806-2.553c-1.21-0.039-2.573-0.078-3.992-0.109
							C241.433,400.072,241.993,401.633,243.389,401.499z"/>
					</g>
				</g>
				<g>
					<g>
						<g>
							<path style="fill:#FBD407;" d="M221.563,410.659c6.449,0,6.449-10,0-10C215.114,400.659,215.114,410.659,221.563,410.659
								L221.563,410.659z"/>
						</g>
					</g>
					<g>
						<g>
							<path style="fill:#FBD407;" d="M259.146,409.659c6.448,0,6.448-10,0-10C252.698,399.659,252.698,409.659,259.146,409.659
								L259.146,409.659z"/>
						</g>
					</g>
				</g>
			</g>
		</g>
	</g>
	<g>
		<g>
			<path style="fill:#FFFFFF;" d="M366.686,318.966c-0.289-1.063-45.016-87.6-47.098-93.066l41.512-29.882
				c22.74,4.479,29.857,5.291,52.461,9.3l30.266,42.588C423.069,269.281,385.854,303.42,366.686,318.966z"/>
			<g>
				<path style="fill:#FFFFFF;" d="M373.918,316.972c-1.846-5.134-4.874-10.002-7.345-14.839
					c-5.189-10.157-10.393-20.306-15.586-30.46c-5.44-10.639-10.876-21.279-16.264-31.944c-1.9-3.76-3.794-7.524-5.661-11.301
					c-0.624-1.262-1.242-2.526-1.852-3.794c-0.488-1.018-1.526-3.609-0.391-0.727c-1.149,2.823-2.298,5.646-3.447,8.47
					c13.838-9.961,27.675-19.921,41.512-29.882c-1.926,0.252-3.853,0.504-5.779,0.756c17.434,3.42,34.97,6.208,52.461,9.3
					c-1.494-1.149-2.988-2.298-4.481-3.446c10.088,14.196,20.177,28.392,30.266,42.588c0.391-3.029,0.781-6.059,1.172-9.088
					c-24.307,24.965-50.105,49.061-77.141,71.059c-3.175,2.584-2.668,7.939,0,10.607c3.11,3.11,7.439,2.577,10.607,0
					c27.034-21.999,52.833-46.095,77.141-71.059c2.197-2.257,3.121-6.346,1.172-9.089c-6.828-9.609-13.657-19.219-20.486-28.829
					c-3.094-4.354-6.188-8.707-9.281-13.061c-2.735-3.848-6.001-4.331-10.471-5.111c-6.252-1.092-12.513-2.131-18.772-3.185
					c-5.4-0.91-10.795-1.855-16.181-2.849c-4.67-0.861-13.687-4.505-17.88-1.486c-3.883,2.795-7.767,5.591-11.65,8.386
					c-9.926,7.146-19.853,14.291-29.778,21.437c-2.531,1.822-4.745,5.175-3.447,8.47c2.333,5.918,5.464,11.564,8.32,17.236
					c5.277,10.476,10.616,20.92,15.954,31.366c5.313,10.394,10.638,20.78,15.951,31.174c1.758,3.438,3.515,6.878,5.262,10.321
					c0.533,1.051,1.064,2.103,1.592,3.156c0.449,0.899,1.256,3.255,0.019-0.186C362.701,329.992,377.199,326.098,373.918,316.972z"
					/>
			</g>
		</g>
		<g>
			<g>
				<g>
					<path style="fill:#6CDADE;" d="M366.686,318.966c-0.289-1.063-45.016-87.6-47.098-93.066l41.512-29.882
						c22.74,4.479,29.857,5.291,52.461,9.3l30.266,42.588C423.069,269.281,385.854,303.42,366.686,318.966z"/>
				</g>
				<g>
					<path style="fill:#FF43B9;" d="M319.588,225.9l41.512-29.882c22.74,4.479,29.857,5.291,52.461,9.3l30.266,42.588"/>
				</g>
				<g>
					<path style="fill:#FF43B9;" d="M367.469,319.097c0.021-1.01-7.648-81.336-7.855-86.488l18.684-32.708
						c8.041,2.014,10.615,2.066,18.641,3.632l6.865,37.665C393.792,264.374,376.288,301.818,367.469,319.097z"/>
				</g>
				<g>
					<path style="fill:#FBD407;" d="M359.614,232.609l18.684-33.708c8.041,2.014,10.615,2.066,18.641,3.632l6.865,38.665"/>
				</g>
			</g>
			<g>
				<g>
					<g>
						<g>
							<g>
								<path style="fill:#FFFFFF;" d="M359.362,274.241c16.122,0,16.122-25,0-25C343.24,249.241,343.24,274.241,359.362,274.241
									L359.362,274.241z"/>
							</g>
						</g>
						<g>
							<g>
								<path style="fill:#753585;" d="M359.362,269.241c9.673,0,9.673-15,0-15C349.689,254.241,349.689,269.241,359.362,269.241
									L359.362,269.241z"/>
							</g>
						</g>
					</g>
					<g>
						<g>
							<g>
								<path style="fill:#FFFFFF;" d="M394.868,280.192c16.122,0,16.122-25,0-25S378.746,280.192,394.868,280.192L394.868,280.192z
									"/>
							</g>
						</g>
						<g>
							<g>
								<path style="fill:#753585;" d="M394.868,275.192c9.673,0,9.673-15,0-15C385.195,260.192,385.195,275.192,394.868,275.192
									L394.868,275.192z"/>
							</g>
						</g>
					</g>
				</g>
				<g>
					<g>
						<path style="fill:#753585;" d="M362.995,278.023c-2.477,13.997,22.971,18.07,23.66,3.511
							C386.655,281.534,370.389,278.657,362.995,278.023"/>
					</g>
					<g>
						<path style="fill:#FFFFFF;" d="M368.539,281.07c0.065,1.214,0.782,2.239,2.125,2.127c1.775-0.148,2.564-2.16,2.773-3.829
							c-1.595-0.24-3.194-0.473-4.716-0.679C368.646,279.482,368.497,280.271,368.539,281.07z"/>
					</g>
					<g>
						<path style="fill:#FFFFFF;" d="M377.214,284.451c2.202-0.04,2.656-2.163,2.843-4.035c-1.34-0.221-2.801-0.456-4.313-0.692
							C375.161,281.529,374.565,284.5,377.214,284.451z"/>
					</g>
				</g>
				<g>
					<g>
						<g>
							<path style="fill:#FBD407;" d="M349.208,287.469c6.448,0,6.448-10,0-10C342.76,277.469,342.76,287.469,349.208,287.469
								L349.208,287.469z"/>
						</g>
					</g>
					<g>
						<g>
							<path style="fill:#FBD407;" d="M399.841,293.798c6.448,0,6.448-10,0-10C393.393,283.798,393.393,293.798,399.841,293.798
								L399.841,293.798z"/>
						</g>
					</g>
				</g>
			</g>
		</g>
	</g>
	<g>
		<g>
			<g>
				<path style="fill:#FFFFFF;" d="M373.919,58.509c-82.206-8.932-87.363,108.588-11.08,112.623
					C438.998,175.159,443.594,66.265,373.919,58.509"/>
				<g>
					<path style="fill:#FFFFFF;" d="M373.919,51.009c-16.402-1.673-33.601,1.307-47.127,11.17
						c-11.856,8.646-19.938,21.329-23.485,35.52c-7.108,28.425,4.977,60.52,31.732,73.938c29.997,15.044,69.901,6.377,87.033-23.359
						c14.836-25.751,10.38-61.558-11.789-81.738C400.134,57.301,387.384,52.614,373.919,51.009c-4.069-0.485-7.5,3.779-7.5,7.5
						c0,4.455,3.441,7.016,7.5,7.5c14.201,1.692,26.478,9.208,33.771,20.473c6.982,10.786,9.344,24.66,7.466,36.547
						c-2.07,13.1-8.545,24.879-19.016,32.205c-12.525,8.763-29.311,10.399-44.196,6.756c-12.753-3.121-22.798-10.923-29.101-21.878
						c-5.726-9.952-7.683-23.009-6.022-33.726c1.961-12.645,7.415-22.816,17.115-30.911c10.355-8.64,25.752-10.918,39.983-9.467
						c4.075,0.416,7.5-3.726,7.5-7.5C381.419,54.106,377.985,51.423,373.919,51.009L373.919,51.009z"/>
				</g>
			</g>
			<g>
				<g>
					<path style="fill:#FFFFFF;" d="M316.858,96.838c-8.682-1.444-18.698-2.489-27.036,1.022
						c-8.992,3.788-14.017,13.501-9.254,22.704c3.218,6.219,11.006,9.379,17.073,11.871c8.032,3.299,16.589,5.375,25.039,7.275
						c13.4,3.013,26.986,5.049,40.546,7.181c18.069,2.841,36.431,5.314,54.755,5.174c10.429-0.08,27.507-0.52,32.495-11.889
						c8.023-18.288-16.253-26.906-29.633-29.278c-9.457-1.676-13.501,12.778-3.988,14.464c5.506,0.976,11.081,2.171,16.052,4.819
						c1.593,0.849,2.508,1.563,3.646,2.739c0.063,0.065,0.535,1.648,0.471,0.616c0.114,1.841,0.417-1.476-0.06,0.305
						c0.406-1.52,0.118-0.245-0.133,0.202c0.847-1.51,0.319-0.399-0.164,0.067c1.283-1.237,0.051-0.08-0.359,0.169
						c-0.188,0.114-2.05,0.954-0.579,0.358c-0.675,0.274-1.376,0.482-2.072,0.694c-1.857,0.565-3.785,0.894-5.7,1.187
						c-16.447,2.509-35.993-0.511-52.88-2.911c-12.963-1.843-25.942-3.879-38.797-6.362c-8.882-1.715-17.727-3.717-26.38-6.368
						c-3.372-1.033-6.886-2.256-9.694-3.544c-1.424-0.653-2.801-1.4-4.143-2.207c-0.594-0.356-1.159-0.754-1.722-1.155
						c1.341,0.955-0.517-0.577-0.76-0.828c-0.917-0.952,0.636,1.198-0.282-0.577c0.819,1.584,0.248,1.371,0.383,0.566
						c0.245-1.467-0.433,0.07,0.549-0.896c0.017-0.017,1.324-0.59,2.225-0.862c5.136-1.552,11.427-0.904,16.414-0.074
						C322.33,112.876,326.383,98.422,316.858,96.838L316.858,96.838z"/>
					<g>
						<path style="fill:#FFFFFF;" d="M318.852,89.606c-13.944-2.25-28.963-3.198-40.243,6.802
							c-10.139,8.989-9.132,24.763,0.086,33.828c4.342,4.27,10.205,6.621,15.718,8.924c7.322,3.058,14.938,5.137,22.647,6.955
							c15.846,3.737,31.971,6.129,48.049,8.612c16.215,2.503,32.522,4.554,48.945,4.83c10.943,0.184,22.179-0.235,32.234-4.958
							c9.995-4.694,15.049-16.482,12.517-27.007c-2.367-9.839-12.248-15.887-20.901-19.494c-11.025-4.595-28.115-9.175-33.127,5.953
							c-2.19,6.613,0.158,12.632,5.529,16.738c2.947,2.254,7.689,2.35,11.152,3.161c2.078,0.487,4.194,1.101,6.154,1.956
							c1.007,0.458,1.977,0.983,2.909,1.578c-0.346-0.717-0.691-1.435-1.037-2.152c0.314,0.774,0.642,1.541,0.983,2.303
							c2.708,6.101,12.226,4.062,13.708-1.792c0.026-0.104,0.054-0.209,0.08-0.314c-4.911-0.665-9.821-1.329-14.732-1.994
							c0.022,0.179,0.046,0.359,0.068,0.538c0.727,5.722,5.783,9.235,11.285,6.476c5.624-2.82,4.49-10.624,0.05-13.698
							c-4.224-2.925-9.541,0.225-11.018,4.482c-0.059,0.171-0.118,0.342-0.178,0.513c4.821,1.329,9.643,2.658,14.465,3.987
							c0.067-0.241,0.134-0.482,0.201-0.722c2.611-9.34-11.747-13.248-14.464-3.987c-0.082,0.318-0.193,0.626-0.335,0.924
							c-3.238,8.064,9.546,12.926,13.708,5.779c0.147-0.253,0.295-0.505,0.441-0.758c4.882-8.381-7.957-15.836-12.952-7.571
							c0.19-0.231,0.379-0.462,0.567-0.693c-5.873,7.39,3.516,17.537,10.607,10.606c0.181-0.177,0.361-0.354,0.543-0.53
							c6.017-5.881-1.885-16.542-9.089-11.779c-3.913,2.587,0.609-0.2-2.038,1.27c-7.302,4.051-2.282,16.774,5.779,13.708
							c0.186-0.071,0.371-0.141,0.557-0.212c8.911-3.389,5.181-17.766-3.988-14.464c-9.498,3.42-20.34,2.808-30.244,2.139
							c-12.105-0.818-24.154-2.794-36.144-4.591c-12.276-1.84-24.53-3.908-36.674-6.488c-10.814-2.298-23.326-4.515-32.547-10.968
							c-2.523,4.317-5.047,8.635-7.57,12.952c0.16,0.103,0.32,0.206,0.48,0.309c7.301,4.688,14.988-5.806,9.089-11.779
							c-0.483-0.489-1.006-0.948-1.543-1.379c-6.265-5.028-16.555,1.316-11.779,9.088c0.842,1.369,1.685,2.169,3.013,3.061
							c6.964,4.671,12.912-4.083,10.262-10.261c-0.101-0.235-0.201-0.47-0.303-0.705c-3.335-7.777-16.999-2.038-13.708,5.779
							c0.145,0.343,0.289,0.687,0.434,1.03c0-1.329,0-2.659,0-3.988c-0.009,0.033-0.018,0.066-0.027,0.1
							c4.91,0.665,9.821,1.329,14.731,1.994c-0.039-0.396-0.029-0.791,0.028-1.186c0.264-3.209-2.473-6.503-5.506-7.232
							c-0.018-0.004-0.035-0.008-0.053-0.013c-7.084-1.704-12.915,7.18-7.297,12.535c0.028,0.027,0.057,0.054,0.085,0.081
							c2.255,2.149,6.359,3.173,9.089,1.173c1.465-1.074-1.855,0.517,0.898-0.448c1.492-0.522,3.007-0.595,4.567-0.667
							c3.336-0.154,6.56,0.516,9.853,0.861c4.826,0.507,9.67-1.471,12.845-5.125C332.864,105.447,330.047,92.173,318.852,89.606
							c-9.417-2.159-13.415,12.303-3.988,14.464c1.792,0.411,0.82,0.424,0.044-0.649c-0.638-0.88-0.199,0.03-0.156-0.161
							c-0.143,0.63-0.306,0.744-1.421,0.568c-7.057-1.111-17.14-2.277-23.351,2.275c3.03,0.391,6.06,0.782,9.089,1.172
							c-0.028-0.027-0.057-0.054-0.085-0.081c-2.433,4.179-4.865,8.357-7.297,12.536c0.018,0.004,0.035,0.008,0.053,0.013
							c-1.836-2.411-3.671-4.822-5.507-7.232c-0.058,0.395-0.067,0.789-0.028,1.186c0.342,8.369,12.41,10.327,14.732,1.994
							c0.502-1.799,0.303-3.435-0.405-5.116c-4.569,1.926-9.139,3.853-13.708,5.779c0.101,0.235,0.201,0.47,0.302,0.705
							c3.421-3.42,6.841-6.841,10.262-10.261c0.789,0.773,1.579,1.547,2.368,2.32c-3.926,3.03-7.853,6.059-11.779,9.089
							c0.537,0.431,1.06,0.89,1.543,1.379c3.029-3.927,6.06-7.853,9.089-11.779c-0.16-0.103-0.321-0.206-0.481-0.309
							c-8.235-5.288-15.382,7.485-7.57,12.952c9.804,6.861,22.766,9.471,34.234,12.065c13.373,3.024,26.962,5.164,40.514,7.195
							c12.679,1.9,25.399,3.847,38.187,4.835c11.091,0.857,23.616,1.148,34.232-2.675c-1.329-4.821-2.659-9.643-3.988-14.464
							c-0.186,0.07-0.371,0.141-0.556,0.211c1.926,4.569,3.853,9.139,5.778,13.708c0.746-0.414,4.943-3.19,2.038-1.27
							c-3.029-3.926-6.059-7.853-9.089-11.779c-0.181,0.177-0.361,0.354-0.543,0.531c3.536,3.536,7.071,7.071,10.607,10.606
							c0.608-0.767,1.271-1.504,1.777-2.343c-4.317-2.523-8.635-5.047-12.952-7.571c-0.146,0.253-0.294,0.505-0.44,0.757
							c4.569,1.927,9.139,3.853,13.708,5.779c0.142-0.297,0.253-0.605,0.334-0.924c-4.821-1.329-9.643-2.658-14.464-3.987
							c-0.067,0.241-0.135,0.481-0.202,0.722c-2.63,9.41,11.329,13.03,14.465,3.987c0.059-0.171,0.118-0.342,0.178-0.513
							c-3.673,1.494-7.346,2.988-11.017,4.482c0.024,0.017,0.05,0.034,0.074,0.052c-1.237-2.159-2.476-4.317-3.714-6.476
							c0.071-0.445,0.144-0.891,0.216-1.336c1.148-1.494,2.298-2.988,3.446-4.482c-0.023,0.012-0.048,0.024-0.072,0.037
							c3.762,2.158,7.523,4.317,11.285,6.476c-0.022-0.179-0.046-0.359-0.068-0.538c-0.996-7.844-12.485-10.862-14.733-1.994
							c-0.026,0.105-0.053,0.209-0.079,0.314c4.569-0.597,9.139-1.194,13.708-1.792c1.176,2.648-1.307-2.202-1.563-2.447
							c-1.189-1.13-2.458-2.098-3.765-3.085c-2.635-1.993-6.313-3.103-9.403-4.141c-3.186-1.07-6.541-1.66-9.84-2.26
							c-1.736-0.316-0.885-0.59-0.038,0.595c0.219,0.306,0.105,1.683,0.133-0.17c-0.016,1.108,0.739-0.488-0.058-0.158
							c1.033-0.428,2.403,0.209,3.673,0.496c4.345,0.982,8.628,2.365,12.623,4.34c5.738,2.836,13.067,8.785,7.496,15.518
							c-5.668,6.85-18.749,5.799-26.661,5.82c-16.381,0.043-32.702-2.113-48.86-4.608c-16.059-2.479-32.099-5.008-47.924-8.74
							c-7.105-1.675-14.077-3.748-20.833-6.527c-5.099-2.098-10.608-4.553-12.103-10.279c-1.18-4.521,3.438-8.527,7.101-9.93
							c6.71-2.57,14.564-1.53,21.466-0.417c4.032,0.651,8.055-0.98,9.227-5.238C325.085,95.219,322.893,90.258,318.852,89.606z"/>
					</g>
				</g>
			</g>
		</g>
		<g>
			<g>
				<path style="fill:#FF43B9;" d="M373.919,58.509c-82.206-8.932-87.363,108.588-11.08,112.623
					C438.998,175.159,443.594,66.265,373.919,58.509"/>
			</g>
			<g>
				<g>
					<path style="fill:#9C47B1;" d="M316.858,96.838c-8.682-1.444-18.698-2.489-27.036,1.022
						c-8.992,3.788-14.017,13.501-9.254,22.704c3.218,6.219,11.006,9.379,17.073,11.871c8.032,3.299,16.589,5.375,25.039,7.275
						c13.4,3.013,26.986,5.049,40.546,7.181c18.069,2.841,36.431,5.314,54.755,5.174c10.429-0.08,27.507-0.52,32.495-11.889
						c8.023-18.288-16.253-26.906-29.633-29.278c-9.457-1.676-13.501,12.778-3.988,14.464c5.506,0.976,11.081,2.171,16.052,4.819
						c1.593,0.849,2.508,1.563,3.646,2.739c0.063,0.065,0.534,1.648,0.471,0.616c0.114,1.841,0.417-1.476-0.06,0.305
						c0.406-1.52,0.117-0.245-0.133,0.202c0.847-1.51,0.319-0.399-0.164,0.067c1.283-1.237,0.051-0.079-0.359,0.169
						c-0.188,0.114-2.05,0.954-0.579,0.358c-0.675,0.273-1.376,0.482-2.072,0.694c-1.857,0.565-3.785,0.894-5.7,1.186
						c-16.447,2.509-35.993-0.51-52.88-2.911c-12.963-1.842-25.942-3.879-38.797-6.362c-8.882-1.715-17.727-3.717-26.38-6.368
						c-3.372-1.033-6.886-2.256-9.694-3.544c-1.424-0.653-2.801-1.4-4.143-2.207c-0.594-0.356-1.159-0.754-1.722-1.155
						c1.341,0.956-0.517-0.577-0.76-0.828c-0.917-0.952,0.636,1.198-0.282-0.577c0.819,1.584,0.248,1.371,0.383,0.566
						c0.245-1.467-0.433,0.07,0.548-0.896c0.018-0.017,1.325-0.59,2.226-0.862c5.136-1.552,11.427-0.904,16.414-0.074
						C322.33,112.876,326.383,98.422,316.858,96.838L316.858,96.838z"/>
				</g>
			</g>
			<g>
				<path style="fill:#FF43B9;" d="M314.539,114.832c4.995,2.359,10.375,3.852,15.766,4.998c5.771,1.225,11.621,2.053,17.479,2.729
					c5.367,0.621,10.747,1.1,16.12,1.666c6.61,0.697,13.216,1.438,19.824,2.156c12.619,1.372,25.416,2.579,38.097,1.552
					c6.421-29.941-9.386-65.138-47.904-69.425c-41.828-4.545-63.695,23.651-65.048,52.977
					C310.634,112.796,312.553,113.896,314.539,114.832z"/>
			</g>
			<g>
				<g>
					<g>
						<g>
							<g>
								<path style="fill:#FFFFFF;" d="M346.934,115.665c16.122,0,16.122-25,0-25S330.812,115.665,346.934,115.665L346.934,115.665z
									"/>
							</g>
						</g>
						<g>
							<g>
								<path style="fill:#753585;" d="M346.934,110.665c9.673,0,9.673-15,0-15C337.261,95.665,337.261,110.665,346.934,110.665
									L346.934,110.665z"/>
							</g>
						</g>
					</g>
					<g>
						<g>
							<g>
								<path style="fill:#FFFFFF;" d="M388.201,121.987c16.122,0,16.122-25,0-25C372.079,96.987,372.079,121.987,388.201,121.987
									L388.201,121.987z"/>
							</g>
						</g>
						<g>
							<g>
								<path style="fill:#753585;" d="M388.201,116.987c9.673,0,9.673-15,0-15C378.528,101.987,378.528,116.987,388.201,116.987
									L388.201,116.987z"/>
							</g>
						</g>
					</g>
				</g>
				<g>
					<g>
						<path style="fill:#753585;" d="M356.571,119.459c-0.601,4.709,3.08,8.331,7.523,9.052c4.856,0.788,9.153-2.092,10.133-6.922
							c0.48-2.361-3.135-3.366-3.615-0.997c-0.613,3.024-2.871,4.733-5.983,4.228c-2.81-0.456-4.673-2.497-4.308-5.361
							C360.626,117.065,356.873,117.094,356.571,119.459L356.571,119.459z"/>
					</g>
				</g>
				<g>
					<g>
						<g>
							<path style="fill:#6CDADE;" d="M325.829,119.684c6.448,0,6.448-10,0-10C319.38,109.684,319.38,119.684,325.829,119.684
								L325.829,119.684z"/>
						</g>
					</g>
					<g>
						<g>
							<path style="fill:#6CDADE;" d="M406.208,131.71c6.448,0,6.448-10,0-10C399.76,121.71,399.76,131.71,406.208,131.71
								L406.208,131.71z"/>
						</g>
					</g>
				</g>
			</g>
			<g>
				<g>
					<g>
						<path style="fill:#C932AE;" d="M394.816,93.039c12.897,0,12.897-20,0-20C381.918,73.039,381.918,93.039,394.816,93.039
							L394.816,93.039z"/>
					</g>
				</g>
				<g>
					<g>
						<path style="fill:#C932AE;" d="M373.93,89.272c9.673,0,9.673-15,0-15C364.257,74.272,364.257,89.272,373.93,89.272
							L373.93,89.272z"/>
					</g>
				</g>
				<g>
					<g>
						<path style="fill:#C932AE;" d="M408.74,109.526c9.673,0,9.673-15,0-15C399.067,94.526,399.067,109.526,408.74,109.526
							L408.74,109.526z"/>
					</g>
				</g>
				<g>
					<g>
						<path style="fill:#C932AE;" d="M380.892,72.849c6.448,0,6.448-10,0-10C374.444,62.849,374.444,72.849,380.892,72.849
							L380.892,72.849z"/>
					</g>
				</g>
				<g>
					<g>
						<path style="fill:#C932AE;" d="M357.474,84.241c6.448,0,6.448-10,0-10C351.026,74.241,351.026,84.241,357.474,84.241
							L357.474,84.241z"/>
					</g>
				</g>
			</g>
		</g>
	</g>
	<g>
		<g>
			<g>
				<path style="fill:#FFFFFF;" d="M86.065,123.029c-6.018-9.127-23.691-25.771-32.133-30.826c5.742-2.012,20.027,1.55,25.799,4.099
					c-2.469-4.681-7.025-11.762-10.334-18.864c-5.242-11.251-4.947-16.283-5.738-23.758c6.498,6.737,17.535,15.979,22.48,24.001
					c0.527-7.196-1.41-13.965-0.393-21.247c1.182-7.817,2.477-16.047,8.32-23.621c2.959,17.73,4.023,27.653,7.332,46.531
					c4.135-8.331,11.914-24.906,22.922-25.803c-6.881,13.591-6.527,22.041-7.695,34.783c8.611-3.018,13.373-3.833,23.033-3.733
					c-10.646,10.646-23.652,26.913-26.273,36.704"/>
				<g>
					<path style="fill:#FFFFFF;" d="M92.541,119.244C83.83,106.406,70.93,93.885,57.717,85.727
						c-0.597,4.569-1.194,9.139-1.792,13.708c5.384-1.564,14.997,1.222,20.02,3.343c6.655,2.811,14.121-3.107,10.261-10.262
						c-3.937-7.295-8.587-14.243-11.673-21.97c-2.205-5.52-2.788-11.028-3.375-16.866c-4.268,1.768-8.536,3.536-12.803,5.303
						c7.143,7.305,15.72,13.832,21.308,22.483c4.102,6.351,13.625,3.744,13.976-3.785c0.347-7.433-1.371-14.798-0.204-22.202
						c1.096-6.946,2.919-13.15,7.107-18.881c-4.569-0.597-9.139-1.194-13.708-1.792c2.568,15.492,4.639,31.059,7.332,46.531
						c1.102,6.331,10.942,7.379,13.708,1.792c2.285-4.615,4.607-9.19,7.395-13.528c1.857-2.89,5.269-8.071,9.051-8.561
						c-2.159-3.762-4.317-7.523-6.476-11.286c-6.159,12.534-7.511,24.863-8.719,38.568c-0.415,4.713,5.129,8.733,9.494,7.232
						c7.073-2.432,13.563-3.498,21.039-3.465c-1.768-4.268-3.536-8.536-5.303-12.803c-10.978,11.082-23.69,24.692-28.202,40.013
						c-2.739,9.301,11.738,13.245,14.464,3.987c1.756-5.962,5.743-11.287,9.371-16.239c4.479-6.112,9.646-11.777,14.974-17.155
						c4.612-4.656,1.25-12.775-5.303-12.803c-8.697-0.038-16.8,1.173-25.027,4.001c3.164,2.411,6.329,4.821,9.494,7.232
						c0.962-10.917,1.753-20.988,6.671-30.997c2.194-4.465-0.335-12.081-6.476-11.286c-15.525,2.009-23.108,16.813-29.398,29.518
						c4.569,0.597,9.139,1.194,13.708,1.792c-2.692-15.472-4.764-31.04-7.332-46.531c-1.182-7.13-10.352-6.383-13.708-1.792
						c-4.89,6.689-7.265,14.376-8.619,22.464c-1.489,8.887,0.082,17.308-0.332,26.189c4.659-1.262,9.317-2.523,13.976-3.785
						c-6.348-9.83-15.549-17.232-23.653-25.52c-4.262-4.359-13.479-1.409-12.803,5.303c0.721,7.167,1.389,14.045,3.911,20.854
						c3.355,9.058,8.625,17.102,13.185,25.554c3.42-3.421,6.841-6.841,10.261-10.262c-9.231-3.898-21.59-7.758-31.578-4.855
						c-6.317,1.835-7.324,10.292-1.792,13.708c5.481,3.385,10.274,7.839,14.952,12.233c5.169,4.855,10.493,10.011,14.49,15.902
						C84.986,134.768,97.989,127.272,92.541,119.244L92.541,119.244z"/>
				</g>
			</g>
			<g>
				<path style="fill:#FFFFFF;" d="M106.868,236.002c-30.994,0.63-48.668-7.762-50.904-43.974
					c-1.726-27.964,1.315-77.292,40.324-82.836c30.824-4.381,52.6,28.937,55.27,61.89
					C155.227,204.013,156.555,232.493,106.868,236.002"/>
				<g>
					<path style="fill:#FFFFFF;" d="M106.868,228.502c-15.511,0.253-33.069-1.222-39.534-17.223
						c-3.541-8.763-4.02-18.385-4.206-27.719c-0.172-8.64,0.231-17.358,1.661-25.888c2.718-16.207,9.538-34.119,26.524-39.691
						c21.548-7.068,38.874,10.042,46.671,28.584c4.335,10.308,5.81,21.08,6.865,32.11c0.774,8.095,1.363,17.199,0.009,24.723
						c-1.291,7.173-3.944,12.225-9.524,16.817C127.892,226.34,116.162,227.786,106.868,228.502c-9.58,0.738-9.652,15.744,0,15
						c19.051-1.468,40.616-6.828,49.181-25.925c7.267-16.201,4.657-35.757,2.285-52.787c-3.145-22.573-14.477-46.434-35.065-57.913
						c-18.594-10.367-42.796-5.55-56.87,10.066c-18.429,20.45-20.085,53.419-17.575,79.467c1.391,14.433,5.933,28.948,18.023,37.896
						c11.321,8.379,26.43,9.417,40.021,9.195C116.53,243.344,116.546,228.344,106.868,228.502L106.868,228.502z"/>
				</g>
			</g>
		</g>
		<g>
			<g>
				<path style="fill:#6CDADE;" d="M86.065,123.029c-6.018-9.127-23.691-25.771-32.133-30.826c5.742-2.012,20.027,1.55,25.799,4.099
					c-2.469-4.681-7.025-11.762-10.334-18.864c-5.242-11.251-4.947-16.283-5.738-23.758c6.498,6.737,17.535,15.979,22.48,24.001
					c0.527-7.196-1.41-13.965-0.393-21.247c1.182-7.817,2.477-16.047,8.32-23.621c2.959,17.73,4.023,27.653,7.332,46.531
					c4.135-8.331,11.914-24.906,22.922-25.803c-6.881,13.591-6.527,22.041-7.695,34.783c8.611-3.018,13.373-3.833,23.033-3.733
					c-10.646,10.646-23.652,26.913-26.273,36.704"/>
			</g>
			<g>
				<path style="fill:#FBD407;" d="M106.868,236.002c-30.994,0.63-48.668-7.762-50.904-43.974
					c-1.726-27.964,1.315-77.292,40.324-82.836c30.824-4.381,52.6,28.937,55.27,61.89
					C155.227,204.013,156.555,232.493,106.868,236.002"/>
			</g>
			<g>
				<g>
					<g>
						<g>
							<g>
								<path style="fill:#FFFFFF;" d="M85.62,187.302c16.121,0,16.121-25,0-25C69.498,162.302,69.498,187.302,85.62,187.302
									L85.62,187.302z"/>
							</g>
						</g>
						<g>
							<g>
								<path style="fill:#753585;" d="M85.62,182.302c9.673,0,9.673-15,0-15C75.947,167.302,75.947,182.302,85.62,182.302
									L85.62,182.302z"/>
							</g>
						</g>
					</g>
					<g>
						<g>
							<g>
								<path style="fill:#FFFFFF;" d="M122.584,185.217c16.122,0,16.122-25,0-25S106.463,185.217,122.584,185.217L122.584,185.217z
									"/>
							</g>
						</g>
						<g>
							<g>
								<path style="fill:#753585;" d="M122.584,180.217c9.673,0,9.673-15,0-15C112.912,165.217,112.912,180.217,122.584,180.217
									L122.584,180.217z"/>
							</g>
						</g>
					</g>
				</g>
				<g>
					<g>
						<path style="fill:#753585;" d="M106.584,191.89c-5.521,0.794-6.574-4.712-12.162-2c-2.553,1.043-3.643,4.135-3.477,6.531
							c0.168,2.395,1.611,5.033,4.166,7.049c2.557,2.015,6.223,3.41,10.834,3.316c6.248-0.127,8.619-1.126,12.039-3.148
							c3.08-2.308,4.908-4.344,4.766-8.68c-0.059-3.068-1.197-6.614-6.766-6.426C111.561,188.548,110.797,191.412,106.584,191.89"/>
					</g>
					<g>
						<path style="fill:#FFFFFF;" d="M101.458,195.546c1.651,0.365,2.991-0.605,3.469-2.156c0.146-0.471,0.226-0.955,0.286-1.442
							c-2.474-0.112-3.985-1.536-5.745-2.316C99.054,191.88,99.022,195.007,101.458,195.546z"/>
					</g>
					<g>
						<path style="fill:#FFFFFF;" d="M111.342,195.03c0.695-0.449,1.157-1.008,1.312-1.837c0.145-0.773,0.094-1.573-0.037-2.345
							c-0.082-0.484-0.196-0.958-0.321-1.43c-1.663,0.853-2.924,2.06-5.406,2.425C107.338,194.102,108.925,196.592,111.342,195.03z"
							/>
					</g>
					<g>
						<path style="fill:#FF43B9;" d="M113.502,198.914c-1.422-0.333-2.895-0.411-4.212,0.324c-1.186,0.662-2.071,1.71-2.867,2.788
							c-0.024,0.034-0.078,0.033-0.091-0.012c-0.389-1.326-1.288-2.39-2.67-2.715c-1.238-0.292-2.545-0.102-3.741,0.292
							c-2.138,0.705-3.338,2.404-4.191,4.324c2.518,1.769,5.957,2.958,10.216,2.872c6.248-0.127,8.619-1.126,12.039-3.148
							c0.07-0.052,0.131-0.104,0.199-0.156C117.41,201.328,115.809,199.455,113.502,198.914z"/>
					</g>
				</g>
				<g>
					<g>
						<g>
							<path style="fill:#FF43B9;" d="M75.791,201.165c6.449,0,6.449-10,0-10C69.342,191.165,69.342,201.165,75.791,201.165
								L75.791,201.165z"/>
						</g>
					</g>
					<g>
						<g>
							<path style="fill:#FF43B9;" d="M135.917,197.368c6.449,0,6.449-10,0-10S129.469,197.368,135.917,197.368L135.917,197.368z"/>
						</g>
					</g>
				</g>
			</g>
			<g>
				<g>
					<g>
						<path style="fill:#FFAE00;" d="M73.864,123.889c-2.332,3.618-5.319,12.128,1.901,12.511
							c6.267,0.332,10.151-5.439,10.388-11.121c-1,0-2,0-3,0c-0.056,5.306,1.975,11.944,8.383,11.785
							c6.422-0.16,8.177-8.053,7.908-13.051c-0.982,0.133-1.964,0.266-2.946,0.399c1.286,4.578,4.953,12.547,11.179,10.937
							c5.769-1.492,6.11-8.059,5.005-12.9c-0.964,0.266-1.928,0.532-2.893,0.798c1.537,6.383,6.637,12.006,13.698,9.683
							c6.606-2.174,5.42-9.136,1.303-13.041c-1.402-1.331-3.527,0.788-2.121,2.121c2.894,2.746,3.986,6.721-0.602,8.231
							c-5.165,1.7-8.38-3.614-9.386-7.793c-0.453-1.883-3.322-1.084-2.893,0.798c0.678,2.969,1.159,8.754-3.176,9.228
							c-4.244,0.464-6.384-5.876-7.222-8.861c-0.449-1.6-3.039-1.325-2.946,0.399c0.204,3.781-0.337,8.78-4.642,10.002
							c-4.711,1.338-5.68-5.827-5.65-8.736c0.021-1.942-2.919-1.924-3,0c-0.16,3.834-2.116,7.143-5.983,8.083
							c-5.521,1.341-1.921-6.087-0.715-7.959C77.506,123.771,74.909,122.269,73.864,123.889L73.864,123.889z"/>
					</g>
				</g>
				<g>
					<g>
						<path style="fill:#FFAE00;" d="M67.27,143.509c-2.823,5.807-3.431,14.417,4.77,15.626c7.992,1.178,12.622-6.635,12.583-13.602
							c-0.011-1.945-2.9-1.921-3,0c-0.343,6.612,3.36,12.491,10.281,13.13c7.423,0.685,10.319-7.079,9.807-13.13c-1,0-2,0-3,0
							c0.553,6.274,5.031,11.217,11.668,10.388c6.782-0.848,8.717-7.524,7.102-13.318c-0.52-1.866-3.342-1.082-2.893,0.798
							c1.78,7.454,8.212,14.809,16.534,10.957c7.254-3.357,7.186-11.128,1.795-16.214c-1.406-1.326-3.531,0.792-2.121,2.121
							c4.084,3.852,4.334,9.382-1.466,11.594c-6.484,2.473-10.56-3.857-11.849-9.256c-0.964,0.266-1.928,0.532-2.893,0.798
							c3.115,11.172-11.93,12.871-12.877,2.133c-0.168-1.91-3.164-1.931-3,0c0.41,4.845-1.051,10.183-6.807,10.13
							c-5.321-0.049-7.513-5.663-7.281-10.13c-1,0-2,0-3,0c0.028,5.028-2.32,10.188-7.887,10.69
							c-6.901,0.621-5.858-7.12-3.875-11.198C70.703,143.292,68.116,141.77,67.27,143.509L67.27,143.509z"/>
					</g>
				</g>
				<g>
					<g>
						<path style="fill:#FFAE00;" d="M67.863,209.457c-1.494,14.506,17.235,16.753,21.301,3.563
							c-0.982-0.133-1.964-0.266-2.946-0.399c-0.051,6.689,3.767,12.374,10.756,12.893c7.313,0.543,11.024-6.635,11.231-12.893
							c-0.982,0.133-1.964,0.266-2.946,0.399c1.01,6.574,5.515,12.203,12.68,11.465c7.207-0.742,10.472-7.906,9.886-14.395
							c-0.171-1.895-3.069-1.958-3,0c0.262,7.398,6.071,11.672,13.183,9.079c6.967-2.541,7.647-9.633,2.77-14.57
							c-1.361-1.378-3.481,0.744-2.121,2.121c8.444,8.547-10.389,15.871-10.832,3.37c-1,0-2,0-3,0
							c0.454,5.03-1.258,9.86-6.515,11.305c-5.947,1.634-9.401-4.244-10.159-9.172c-0.267-1.733-2.893-1.221-2.946,0.399
							c-0.168,5.09-2.601,9.844-8.231,9.893c-5.362,0.047-7.791-5.31-7.756-9.893c0.013-1.727-2.454-1.998-2.946-0.399
							c-3.128,10.148-16.54,8.224-15.408-2.765C71.061,207.533,68.059,207.552,67.863,209.457L67.863,209.457z"/>
					</g>
				</g>
			</g>
		</g>
	</g>
	<g>
		<g>
			<path style="fill:#FFFFFF;" d="M229.434,182.568c-30.629,3.232-51.967,13.449-47.626,54.58
				c3.937,37.306,33.288,74.777,61.097,75.847C292.068,314.885,330.413,163.947,229.434,182.568"/>
			<g>
				<path style="fill:#FFFFFF;" d="M229.434,175.068c-18.17,1.98-36.832,6.278-47.928,22.087
					c-12.976,18.489-8.303,46.934-0.836,66.48c11.586,30.333,50.002,75.489,85.093,48.985c20.806-15.714,30.95-43.33,33.934-68.404
					c2.926-24.586-3.704-53.705-27.972-65.264c-13.874-6.608-29.473-6.27-44.285-3.616c-9.511,1.704-5.469,16.158,3.987,14.464
					c7.08-1.268,15.909-1.775,22.009-0.861c6.754,1.012,10.942,2.571,16.21,6.073c3.422,2.274,6.938,6.268,9.425,10.54
					c2.607,4.477,4.062,8.952,5.263,15.136c0.563,2.898,0.646,3.822,0.875,7.48c0.205,3.285,0.17,6.583,0.009,9.869
					c-0.328,6.698-1.104,11.218-2.781,18.094c-3.049,12.498-7.362,22.709-14.871,33.363c-1.24,1.76-2.222,2.995-4.382,5.357
					c-1.718,1.879-3.583,3.618-5.55,5.232c-1.583,1.3,1.22-0.891-0.41,0.305c-0.48,0.353-0.975,0.684-1.47,1.014
					c-0.965,0.646-1.973,1.225-2.994,1.775c-0.498,0.27-1.011,0.514-1.523,0.757c-1.729,0.821,1.504-0.578-0.263,0.11
					c-1.188,0.463-2.416,0.813-3.655,1.108c-0.524,0.125-1.056,0.217-1.587,0.309c2.08-0.359,0.298-0.053-0.139-0.016
					c-1.284,0.109-2.565,0.055-3.849-0.018c-4.317-0.244-8.608-2.016-12.393-3.988c-10.308-5.372-18.485-14.46-24.861-24.005
					c-12.281-18.385-20.651-44.745-13.266-66.537c5.253-15.5,23.721-19.253,38.208-20.831c4.063-0.443,7.5-3.077,7.5-7.5
					C236.934,178.816,233.507,174.624,229.434,175.068L229.434,175.068z"/>
			</g>
		</g>
		<g>
			<g>
				<path style="fill:#6CDADE;" d="M229.434,182.568c-30.629,3.232-51.967,13.449-47.626,54.58
					c3.937,37.306,33.288,74.777,61.097,75.847C292.068,314.885,330.413,163.947,229.434,182.568"/>
			</g>
			<g>
				<g>
					<g>
						<path style="fill:#753585;" d="M232.623,280.846c1.352,12.221,21.226,10.533,18.853-2.099
							c-0.446-2.375-4.06-1.366-3.616,0.996c1.36,7.24-10.734,7.906-11.487,1.102C236.11,278.47,232.357,278.444,232.623,280.846
							L232.623,280.846z"/>
					</g>
				</g>
				<g>
					<g>
						<g>
							<path style="fill:#753585;" d="M221.674,277.099c-19.564,5.391-27.777-36.406-15.498-41.778
								C226.26,226.536,240.143,272.225,221.674,277.099"/>
						</g>
						<g>
							<g>
								<path style="fill:#FFFFFF;" d="M217.261,268.45c9.673,0,9.673-15,0-15C207.588,253.45,207.588,268.45,217.261,268.45
									L217.261,268.45z"/>
							</g>
						</g>
					</g>
					<g>
						<g>
							<path style="fill:#753585;" d="M266.978,228.444c-20.259-1.188-19.566,41.402-6.437,44.093
								C282.018,276.936,286.057,229.356,266.978,228.444"/>
						</g>
						<g>
							<g>
								<path style="fill:#FFFFFF;" d="M263.643,263.555c9.673,0,9.673-15,0-15C253.97,248.555,253.97,263.555,263.643,263.555
									L263.643,263.555z"/>
							</g>
						</g>
					</g>
				</g>
				<g>
					<g>
						<g>
							<path style="fill:#FF43B9;" d="M219.461,292.937c6.449,0,6.449-10,0-10C213.013,282.937,213.013,292.937,219.461,292.937
								L219.461,292.937z"/>
						</g>
					</g>
					<g>
						<g>
							<path style="fill:#FF43B9;" d="M270.094,287.874c6.448,0,6.448-10,0-10C263.646,277.874,263.646,287.874,270.094,287.874
								L270.094,287.874z"/>
						</g>
					</g>
				</g>
			</g>
			<g>
				<g>
					<g>
						<path style="fill:#58C6CF;" d="M256.172,223.254c12.897,0,12.897-20,0-20S243.275,223.254,256.172,223.254L256.172,223.254z"
							/>
					</g>
				</g>
				<g>
					<g>
						<path style="fill:#58C6CF;" d="M244.782,201.767c9.673,0,9.673-15,0-15C235.109,186.767,235.109,201.767,244.782,201.767
							L244.782,201.767z"/>
					</g>
				</g>
				<g>
					<g>
						<path style="fill:#58C6CF;" d="M275.794,223.286c9.673,0,9.673-15,0-15C266.122,208.286,266.122,223.286,275.794,223.286
							L275.794,223.286z"/>
					</g>
				</g>
				<g>
					<g>
						<path style="fill:#58C6CF;" d="M266.933,202.431c6.448,0,6.448-10,0-10C260.485,192.431,260.485,202.431,266.933,202.431
							L266.933,202.431z"/>
					</g>
				</g>
				<g>
					<g>
						<path style="fill:#58C6CF;" d="M239.085,225.216c6.449,0,6.449-10,0-10S232.637,225.216,239.085,225.216L239.085,225.216z"/>
					</g>
				</g>
			</g>
		</g>
	</g>
	<g>
		<g>
			<g>
				<path style="fill:#FFFFFF;" d="M301.938,434.786c7.615-28.143,15.691-60.708,21.32-88.607
					c10.645,14.255,17.443,27.069,25.111,40.23c2.217-0.771,21.25-23.778,32.305-32.193c5.438,11.421,11.486,27.804,14.939,39.469
					c11.242-7.35,23.852-16.076,39.863-28.087c-1.709,35.14-8.822,66.236-12.566,94.244
					C389.915,461.895,332.922,449.103,301.938,434.786"/>
				<g>
					<path style="fill:#FFFFFF;" d="M309.17,436.78c7.92-29.326,15.281-58.832,21.32-88.606c-4.569,0.597-9.139,1.194-13.708,1.791
						c9.438,12.763,17.153,26.53,25.111,40.23c2.166,3.73,6.597,4.476,10.261,2.691c5.417-2.637,9.962-9.666,13.93-13.944
						c6.274-6.764,12.59-13.741,19.894-19.421c-3.927-0.507-7.854-1.013-11.779-1.518c5.708,12.132,10.335,24.84,14.183,37.678
						c1.333,4.444,6.86,7.205,11.018,4.482c13.604-8.912,26.846-18.341,39.863-28.087c-3.762-2.158-7.523-4.317-11.285-6.476
						c-1.604,31.109-8.123,61.461-12.299,92.25c2.411-1.835,4.821-3.671,7.232-5.506c-19.602,1.111-39.364-1.976-58.497-5.963
						c-19.923-4.152-40.134-9.585-58.69-18.069c-3.718-1.7-8.043-1.096-10.261,2.69c-1.909,3.259-1.028,8.561,2.69,10.261
						c19.364,8.854,40.006,14.759,60.773,19.264c20.794,4.51,42.645,8.027,63.984,6.817c3.005-0.17,6.774-2.133,7.232-5.506
						c4.353-32.112,11.161-63.793,12.834-96.238c0.273-5.294-6.742-9.877-11.285-6.476c-13.018,9.745-26.261,19.175-39.863,28.087
						c3.672,1.494,7.345,2.987,11.018,4.481c-4.221-14.078-9.436-27.959-15.696-41.26c-2.267-4.818-8.312-4.215-11.779-1.519
						c-6.977,5.428-13.022,12.057-19.037,18.502c-2.801,3.002-5.567,6.035-8.376,9.029c-0.896,0.955-1.805,1.899-2.729,2.827
						c-1.157,1.161-2.112,1.378-0.644,0.663c3.42,0.896,6.841,1.793,10.261,2.69c-7.957-13.7-15.672-27.469-25.111-40.23
						c-3.478-4.703-12.281-5.243-13.708,1.791c-6.038,29.775-13.399,59.281-21.32,88.606
						C292.18,442.144,306.651,446.108,309.17,436.78L309.17,436.78z"/>
				</g>
			</g>
			<g>
				<g>
					<path style="fill:#FFFFFF;" d="M324.317,356.891c12.897,0,12.897-20,0-20C311.419,336.891,311.419,356.891,324.317,356.891
						L324.317,356.891z"/>
					<g>
						<path style="fill:#FFFFFF;" d="M324.317,364.391c9.866-0.343,16.609-7.444,17.168-17.167
							c0.573-9.972-7.648-17.503-17.168-17.833c-9.857-0.342-16.639,7.949-17.168,17.167
							C306.576,356.53,314.797,364.061,324.317,364.391c9.678,0.336,9.646-14.665,0-15c-2.984-0.104-2.984-4.896,0-5
							c1.122-0.039,1.214,0.15,1.843,0.805c-1.242-1.293,0.665,1.837,0.02,0.096c0.14,0.419,0.255,0.846,0.344,1.279
							c-0.09-0.9-0.103-0.904-0.039-0.013c0.013,0.444,0,0.889-0.038,1.331c0.129-0.893,0.104-0.903-0.076-0.032
							c-0.278,0.823-0.256,0.845,0.068,0.063c-0.19,0.395-0.407,0.776-0.649,1.143c0.522-0.637,0.492-0.636-0.088,0.001
							c0.677-0.444,0.647-0.428-0.088,0.05c-0.764,0.405-0.815,0.438-0.157,0.1c-1.824,0.636,0.977,0.104-1.14,0.178
							C314.671,349.726,314.639,364.727,324.317,364.391z"/>
					</g>
				</g>
			</g>
			<g>
				<g>
					<path style="fill:#FFFFFF;" d="M380.018,364.693c12.897,0,12.897-20,0-20C367.121,344.693,367.121,364.693,380.018,364.693
						L380.018,364.693z"/>
					<g>
						<path style="fill:#FFFFFF;" d="M380.018,372.193c9.866-0.343,16.609-7.444,17.168-17.167
							c0.573-9.972-7.648-17.503-17.168-17.833c-9.857-0.342-16.639,7.949-17.168,17.167
							C362.277,364.332,370.499,371.863,380.018,372.193c9.678,0.336,9.645-14.665,0-15c-2.984-0.104-2.984-4.897,0-5
							c1.122-0.039,1.214,0.15,1.843,0.805c-1.242-1.292,0.665,1.837,0.02,0.096c0.14,0.419,0.255,0.846,0.344,1.279
							c-0.09-0.9-0.103-0.904-0.039-0.013c0.013,0.444,0,0.889-0.038,1.332c0.129-0.893,0.104-0.904-0.076-0.033
							c-0.278,0.823-0.256,0.845,0.068,0.064c-0.191,0.396-0.407,0.776-0.649,1.143c0.521-0.637,0.492-0.636-0.088,0.001
							c0.677-0.444,0.647-0.428-0.088,0.05c-0.764,0.405-0.816,0.438-0.157,0.1c-1.824,0.636,0.977,0.104-1.14,0.178
							C370.373,357.528,370.34,372.529,380.018,372.193z"/>
					</g>
				</g>
			</g>
			<g>
				<g>
					<path style="fill:#FFFFFF;" d="M435.315,375.733c12.897,0,12.897-20,0-20C422.417,355.733,422.417,375.733,435.315,375.733
						L435.315,375.733z"/>
					<g>
						<path style="fill:#FFFFFF;" d="M435.315,383.233c9.866-0.343,16.609-7.444,17.168-17.167
							c0.573-9.972-7.648-17.503-17.168-17.833c-9.857-0.342-16.639,7.949-17.168,17.167
							C417.574,375.372,425.795,382.903,435.315,383.233c9.678,0.336,9.645-14.665,0-15c-2.984-0.104-2.984-4.896,0-5
							c1.122-0.039,1.214,0.15,1.843,0.805c-1.242-1.293,0.665,1.837,0.021,0.096c0.14,0.419,0.255,0.846,0.344,1.279
							c-0.09-0.9-0.102-0.904-0.039-0.013c0.013,0.444,0,0.889-0.038,1.331c0.129-0.893,0.104-0.903-0.076-0.032
							c-0.278,0.823-0.256,0.845,0.068,0.063c-0.19,0.396-0.407,0.776-0.649,1.143c0.521-0.637,0.492-0.636-0.088,0.001
							c0.677-0.444,0.648-0.428-0.088,0.05c-0.764,0.405-0.816,0.438-0.157,0.1c-1.824,0.636,0.977,0.104-1.14,0.178
							C425.669,368.568,425.637,383.569,435.315,383.233z"/>
					</g>
				</g>
			</g>
		</g>
		<g>
			<g>
				<path style="fill:#FBD407;" d="M301.938,434.786c7.615-28.143,15.691-60.708,21.32-88.607
					c10.645,14.255,17.443,27.069,25.111,40.23c2.217-0.771,21.25-23.778,32.305-32.193c5.438,11.421,11.486,27.804,14.939,39.469
					c11.242-7.35,23.852-16.076,39.863-28.087c-1.709,35.14-8.822,66.236-12.566,94.244
					C389.915,461.895,332.922,449.103,301.938,434.786"/>
			</g>
			<g>
				<g>
					<g>
						<g>
							<path style="fill:#FBD407;" d="M324.317,356.891c12.897,0,12.897-20,0-20C311.419,336.891,311.419,356.891,324.317,356.891
								L324.317,356.891z"/>
						</g>
					</g>
					<g>
						<g>
							<path style="fill:#FBD407;" d="M380.018,364.693c12.897,0,12.897-20,0-20C367.121,344.693,367.121,364.693,380.018,364.693
								L380.018,364.693z"/>
						</g>
					</g>
					<g>
						<g>
							<path style="fill:#FBD407;" d="M435.315,375.733c12.897,0,12.897-20,0-20C422.417,355.733,422.417,375.733,435.315,375.733
								L435.315,375.733z"/>
						</g>
					</g>
				</g>
				<g>
					<g>
						<g>
							<path style="fill:#FFAE00;" d="M324.317,351.891c6.448,0,6.448-10,0-10C317.869,341.891,317.869,351.891,324.317,351.891
								L324.317,351.891z"/>
						</g>
					</g>
					<g>
						<g>
							<path style="fill:#FFAE00;" d="M380.018,359.693c6.448,0,6.448-10,0-10C373.57,349.693,373.57,359.693,380.018,359.693
								L380.018,359.693z"/>
						</g>
					</g>
					<g>
						<g>
							<path style="fill:#FFAE00;" d="M435.315,370.733c6.448,0,6.448-10,0-10C428.867,360.733,428.867,370.733,435.315,370.733
								L435.315,370.733z"/>
						</g>
					</g>
				</g>
			</g>
			<g>
				<g>
					<g>
						<g>
							<g>
								<path style="fill:#FFFFFF;" d="M347.368,426.594c16.122,0,16.122-25,0-25C331.246,401.594,331.246,426.594,347.368,426.594
									L347.368,426.594z"/>
							</g>
						</g>
						<g>
							<g>
								<path style="fill:#753585;" d="M347.368,421.594c9.673,0,9.673-15,0-15C337.695,406.594,337.695,421.594,347.368,421.594
									L347.368,421.594z"/>
							</g>
						</g>
					</g>
					<g>
						<g>
							<g>
								<path style="fill:#FFFFFF;" d="M387.311,435.063c16.122,0,16.122-25,0-25C371.189,410.063,371.189,435.063,387.311,435.063
									L387.311,435.063z"/>
							</g>
						</g>
						<g>
							<g>
								<path style="fill:#753585;" d="M387.311,430.063c9.673,0,9.673-15,0-15C377.638,415.063,377.638,430.063,387.311,430.063
									L387.311,430.063z"/>
							</g>
						</g>
					</g>
				</g>
				<g>
					<g>
						<path style="fill:#753585;" d="M364.325,432.321c-4.494-0.466-4.234-4.998-9.16-3.971c-2.211,0.319-3.678,2.532-4.02,4.447
							c-0.34,1.915,0.273,4.272,1.885,6.36c1.609,2.086,4.213,3.904,7.857,4.74c4.934,1.132,6.992,0.815,10.078-0.099
							c2.875-1.206,4.713-2.445,5.457-5.88c0.555-2.422,0.361-5.433-4.051-6.382C368.895,430.675,367.729,432.777,364.325,432.321"
							/>
					</g>
					<g>
						<path style="fill:#FFFFFF;" d="M359.668,431.885c-0.068,1.03-0.183,2.749,0.85,3.389c1.197,0.741,2.3-0.206,2.76-1.295
							c0.237-0.561,0.392-1.15,0.505-1.749c-1.868-0.363-2.852-1.474-3.864-2.442C359.819,430.485,359.714,431.181,359.668,431.885z
							"/>
					</g>
					<g>
						<path style="fill:#FFFFFF;" d="M366.542,436.707c1.515-0.165,2.359-1.486,2.571-2.879c0.116-0.767,0.111-1.535,0.091-2.304
							c-1.356,0.331-2.518,0.951-4.315,0.849C364.776,433.915,364.72,436.906,366.542,436.707z"/>
					</g>
					<g>
						<path style="fill:#FF43B9;" d="M368.529,439.994c-0.649-0.896-1.624-1.482-2.757-1.415c-1.527,0.092-2.88,1.008-4.021,1.956
							c-0.032,0.027-0.085,0.011-0.085-0.035c-0.014-1.01-0.309-2.085-1.271-2.587c-0.873-0.455-1.946-0.459-2.899-0.307
							c-0.952,0.153-1.851,0.535-2.498,1.273c-0.381,0.435-0.669,0.93-0.913,1.447c1.61,1.578,3.861,2.897,6.802,3.571
							c4.254,0.976,6.372,0.874,8.853,0.241C369.701,442.639,369.374,441.159,368.529,439.994z"/>
					</g>
				</g>
				<g>
					<g>
						<g>
							<path style="fill:#FF43B9;" d="M327.892,435.342c6.448,0,6.448-10,0-10C321.444,425.342,321.444,435.342,327.892,435.342
								L327.892,435.342z"/>
						</g>
					</g>
					<g>
						<g>
							<path style="fill:#FF43B9;" d="M400.043,449.266c6.448,0,6.448-10,0-10S393.595,449.266,400.043,449.266L400.043,449.266z"/>
						</g>
					</g>
				</g>
			</g>
			<g>
				<g>
					<g>
						<path style="fill:#FF43B9;" d="M378.525,377.077c-13.412-3.826-19.62,22.784-8.228,24.684
							C381.056,403.659,386.753,380.874,378.525,377.077"/>
					</g>
					<g>
						<g>
							<path style="fill:#FF69C7;" d="M375.879,390.75c6.448,0,6.448-10,0-10C369.431,380.75,369.431,390.75,375.879,390.75
								L375.879,390.75z"/>
						</g>
					</g>
				</g>
				<g>
					<g>
						<g>
							<path style="fill:#9C47B1;" d="M420.833,386.1c-6.204,0-11.976,11.654-7.254,17.364
								C419.957,411.942,433.801,386.589,420.833,386.1"/>
						</g>
						<g>
							<path style="fill:#9C47B1;" d="M329.673,392.42c-6.049-1.383-9.079-14.029-3.204-18.544
								C334.575,367.032,342.423,394.832,329.673,392.42"/>
						</g>
					</g>
					<g>
						<g>
							<g>
								<path style="fill:#B06CC1;" d="M331.379,382c3.225,0,3.225-5,0-5S328.155,382,331.379,382L331.379,382z"/>
							</g>
						</g>
						<g>
							<g>
								<path style="fill:#B06CC1;" d="M422.379,395.75c3.225,0,3.225-5,0-5C419.155,390.75,419.155,395.75,422.379,395.75
									L422.379,395.75z"/>
							</g>
						</g>
					</g>
				</g>
			</g>
		</g>
	</g>
	<g>
		<g>
			<g>
				<path style="fill:#FFFFFF;" d="M115.616,399c3,17,1.943,67.795,27,61c19.67-5.334,1-49-9-65"/>
				<g>
					<path style="fill:#FFFFFF;" d="M108.384,400.995c0.073,0.417,0.142,0.836,0.205,1.255c0.352,2.228-0.188-1.595,0.112,0.824
						c0.166,1.34,0.303,2.684,0.441,4.026c0.353,3.435,0.661,6.873,1.011,10.308c0.769,7.545,1.709,15.104,3.346,22.516
						c2.855,12.928,9.665,28.005,24.96,28.197c7.153,0.09,14.061-3.57,17.49-9.891c3.661-6.748,3.014-14.784,1.918-22.081
						c-2.343-15.598-9.53-31.585-17.775-44.934c-5.071-8.211-18.051-0.684-12.952,7.57c6.807,11.021,12.036,23.265,15.15,35.837
						c1.292,5.217,2.121,11.087,0.821,15.656c-0.427,1.5-0.438,1.508-2.018,2.384c0.676-0.375-1.756,0.403-2.197,0.491
						c1.05-0.209-3.062-0.369-1.403-0.056c-1.71-0.323-2.032-0.681-3.316-1.979c-0.717-0.725-2.248-3.25-3.183-5.213
						c-2.065-4.335-3.31-10.805-4.225-16.056c-1.894-10.874-2.074-21.966-3.921-32.844
						C121.231,387.485,106.777,391.536,108.384,400.995L108.384,400.995z"/>
				</g>
			</g>
			<g>
				<path style="fill:#FFFFFF;" d="M76.616,409c-9.664-36.334-27-86-14-120c12-32,56.508-33.406,74-11
					c19.516,24.999,26.646,59.096,32,90c3.6,20.785,7,30-15,36c-16,5-31.484,9.15-51,12C93.709,417.301,77.286,418.667,76.616,409"
					/>
				<g>
					<path style="fill:#FFFFFF;" d="M83.848,407.006c-6.811-25.475-15.311-50.86-17.814-77.241
						c-1.902-20.049-0.622-45.056,19.385-55.564c14.193-7.453,33.815-4.317,44.583,7.524c8.508,9.355,14.061,22.275,18.326,34.012
						c4.704,12.944,7.797,26.441,10.444,39.935c1.975,10.066,4.819,20.749,4.981,31.054c0.034,2.174-0.017,1.94-0.477,3.552
						c-0.266,0.933-0.581,1.214-1.829,2.373c-2.79,2.593-8.889,3.834-12.917,5.074c-13.317,4.103-26.815,7.48-40.545,9.876
						c-5.481,0.956-10.703,1.738-16.31,1.814c-1.965,0.025-3.88-0.101-5.79-0.527c-0.923-0.206-1.933-1.153-1.769,0.113
						c-0.525-4.054-3.014-7.5-7.5-7.5c-3.69,0-8.027,3.435-7.5,7.5c1.542,11.899,11.813,15.311,22.559,15.414
						c12.43,0.119,25.299-3.019,37.328-5.797c12.252-2.831,25.315-5.846,36.767-11.133c8.152-3.764,12.535-11.119,12.971-19.898
						c0.504-10.14-2.77-21.197-4.591-31.095c-2.49-13.527-5.504-26.966-9.75-40.06c-6.837-21.085-17.805-47.102-39.543-56.471
						c-13.286-5.726-28.801-6.251-42.289-0.82c-15.364,6.188-25.023,18.727-29.297,34.502c-5.175,19.106-2.582,39.777,1.073,58.893
						c3.782,19.78,9.846,39.026,15.041,58.458C71.88,420.331,86.35,416.364,83.848,407.006L83.848,407.006z"/>
				</g>
			</g>
		</g>
		<g>
			<g>
				<g>
					<path style="fill:#FBD407;" d="M115.616,399c3,17,1.943,67.795,27,61c19.67-5.334,1-49-9-65"/>
				</g>
				<g>
					<g>
						<g>
							<path style="fill:#FFAE00;" d="M128.183,415.149c3.339,13.213,7.473,26.208,10.5,39.5c0.429,1.887,3.322,1.086,2.893-0.797
								c-3.026-13.293-7.16-26.288-10.5-39.5C130.602,412.477,127.708,413.273,128.183,415.149L128.183,415.149z"/>
						</g>
					</g>
					<g>
						<g>
							<path style="fill:#FFAE00;" d="M135.433,415.649c2.349,11.234,6.181,22.072,8.75,33.25c0.433,1.886,3.325,1.086,2.893-0.797
								c-2.568-11.179-6.401-22.016-8.75-33.25C137.93,412.958,135.038,413.762,135.433,415.649L135.433,415.649z"/>
						</g>
					</g>
					<g>
						<g>
							<path style="fill:#FFAE00;" d="M121.933,418.399c2.659,11.377,6.098,22.563,8.5,34c0.398,1.894,3.289,1.09,2.893-0.797
								c-2.402-11.438-5.841-22.623-8.5-34C124.386,415.718,121.493,416.517,121.933,418.399L121.933,418.399z"/>
						</g>
					</g>
				</g>
			</g>
			<g>
				<g>
					<path style="fill:#FF43B9;" d="M76.616,409c-9.664-36.334-27-86-14-120c12-32,56.508-33.406,74-11
						c19.516,24.999,26.646,59.096,32,90c3.6,20.785,7,30-15,36c-16,5-31.484,9.15-51,12C93.709,417.301,77.286,418.667,76.616,409"
						/>
				</g>
				<g>
					<g>
						<g>
							<path style="fill:#C932AE;" d="M76.948,305.886c7.802,30.337,14.333,61.03,20.822,91.671
								c2.671,12.615,21.95,7.264,19.285-5.316c-6.489-30.641-13.02-61.335-20.822-91.671
								C93.022,288.086,73.732,293.386,76.948,305.886L76.948,305.886z"/>
						</g>
					</g>
					<g>
						<g>
							<path style="fill:#C932AE;" d="M107.959,300.089c6.355,29.882,12.546,59.834,20.887,89.24
								c3.513,12.388,22.812,7.117,19.285-5.316c-8.34-29.407-14.531-59.359-20.887-89.24
								C124.562,282.161,105.284,287.51,107.959,300.089L107.959,300.089z"/>
						</g>
					</g>
				</g>
			</g>
			<g>
				<g>
					<g>
						<g>
							<g>
								<path style="fill:#FFFFFF;" d="M89.122,353.602c16.122,0,16.122-25,0-25S73,353.602,89.122,353.602L89.122,353.602z"/>
							</g>
						</g>
						<g>
							<g>
								<path style="fill:#753585;" d="M89.122,348.602c9.673,0,9.673-15,0-15C79.449,333.602,79.449,348.602,89.122,348.602
									L89.122,348.602z"/>
							</g>
						</g>
					</g>
					<g>
						<g>
							<g>
								<path style="fill:#FFFFFF;" d="M130.362,346.21c16.122,0,16.122-25,0-25C114.24,321.21,114.24,346.21,130.362,346.21
									L130.362,346.21z"/>
							</g>
						</g>
						<g>
							<g>
								<path style="fill:#753585;" d="M130.362,341.21c9.673,0,9.673-15,0-15C120.689,326.21,120.689,341.21,130.362,341.21
									L130.362,341.21z"/>
							</g>
						</g>
					</g>
				</g>
				<g>
					<g>
						<path style="fill:#753585;" d="M101.487,356.475c3.871,17.767,29.859,11.652,24.041-6.014
							C125.528,350.461,108.791,354.044,101.487,356.475"/>
					</g>
					<g>
						<path style="fill:#FFFFFF;" d="M109.236,356.953c0.575,1.124,1.618,1.527,2.819,1.063c1.923-0.744,1.643-2.975,1.056-4.709
							c-1.569,0.382-3.161,0.779-4.692,1.179C108.665,355.317,108.84,356.18,109.236,356.953z"/>
					</g>
					<g>
						<path style="fill:#FFFFFF;" d="M115.07,354.997c0.477,0.954,1.278,2.094,2.484,2.039c1.632-0.073,2.557-1.483,2.515-3.012
							c-0.022-0.766-0.186-1.521-0.425-2.254c-1.601,0.365-3.41,0.785-5.291,1.236C114.53,353.693,114.756,354.369,115.07,354.997z"
							/>
					</g>
					<g>
						<path style="fill:#6CDADE;" d="M121.083,359.111c-1.052-0.228-2.216-0.177-3.14,0.429c-1.083,0.71-1.609,1.908-1.848,3.143
							c-0.009,0.046-0.068,0.043-0.091,0.012c-0.774-1.086-1.907-1.893-3.268-1.995c-1.224-0.092-2.564,0.221-3.567,0.945
							c-0.826,0.598-1.261,1.401-1.372,2.407c-0.054,0.487-0.078,0.976-0.103,1.465c5.787,3.301,13.736,1.39,17.086-4.186
							C123.804,360.233,122.491,359.415,121.083,359.111z"/>
					</g>
				</g>
				<g>
					<g>
						<g>
							<path style="fill:#FBD407;" d="M88.449,373.95c6.449,0,6.449-10,0-10C82,363.95,82,373.95,88.449,373.95L88.449,373.95z"/>
						</g>
					</g>
					<g>
						<g>
							<path style="fill:#FBD407;" d="M145.411,361.924c6.449,0,6.449-10,0-10S138.962,361.924,145.411,361.924L145.411,361.924z"/>
						</g>
					</g>
				</g>
			</g>
		</g>
	</g>
</g>
</svg>
