<?xml version="1.0" encoding="utf-8"?>
<!-- Generator: Adobe Illustrator 27.5.0, SVG Export Plug-In . SVG Version: 6.00 Build 0)  -->
<svg version="1.1" xmlns="http://www.w3.org/2000/svg" xmlns:xlink="http://www.w3.org/1999/xlink" x="0px" y="0px"
	 viewBox="0 0 500 500" style="enable-background:new 0 0 500 500;" xml:space="preserve">
<g id="background">
</g>
<g id="objects">
	<g>
		<path style="fill:#42210B;" d="M361.211,359.641c-2.537,2.012-4.599,3.659-6.673,5.29c-3.586,2.821-6.881,5.998-11.268,7.751
			c-1.582,0.632-2.601,2.51-4.444,3.093c-2.452,0.775-3.536,0.26-4.272-2.364c-1.123,0.466-2.319,0.476-3.52,0.46
			c-1.647-0.021-2.53-1.026-2.933-2.44c-0.384-1.349,0.54-2.121,1.579-2.737c2.393-1.418,4.93-2.375,7.985-2.263
			c-0.613-2.121,0.532-3.392,1.739-4.73c5.074-5.622,10.089-11.298,15.064-16.886c-0.312-1.554-1.303-2.16-2.556-2.679
			c-6.118-2.533-8.36-6.01-7.664-11.722c-1.033-0.754-2.324-0.628-3.486-0.924c-4.47-1.141-7.545-3.652-8.393-8.352
			c-0.794-4.399,0.814-7.89,4.439-10.655c-3.482-3.033-6.283-6.499-7.52-11.004c-2.016-7.343-0.222-13.752,4.891-19.257
			c2.316-2.494,4.367-3.211,7.879-3.168c0.472-1.993,0.04-4.051,0.351-6.084c1.055-6.901,11.527-14.326,21.213-10.383
			c0.212,0.086,0.445,0.138,0.634,0.26c6.737,4.339,13.962,3.679,21.274,2.074c1.82-0.399,3.661-0.373,5.487-0.243
			c3.507,0.25,5.461,2.06,7.013,6.34c6.775-0.361,10.939,3.443,13.862,9.029c1.132,2.162,1.951,4.485,3.008,6.688
			c2.603,5.423,6.555,7.693,12.318,6.241c10.945-2.757,15.398,7.067,12.526,14.908c-1.409,3.847-4.068,6.576-7.49,8.9
			c1.09,2.86,1.843,5.788,0.908,8.862c-1.225,4.029-3.408,7.181-7.714,8.336c-0.779,0.209-1.381,0.326-1.56,1.324
			c-0.507,2.828-1.824,5.044-5.272,5.566c2.108,3.51,4.069,6.741,5.996,9.99c3.272,5.518,6.995,10.797,9.589,16.675
			c1.16,2.627,2.186,5.267,3.781,7.686c1.118,1.695,1.26,3.716,1.222,5.741c-0.036,1.897-0.818,3.286-2.586,3.923
			c-1.74,0.626-3.121-0.212-4.27-1.477c-0.407-0.448-0.743-0.961-1.107-1.439c-2.34,1.369-3.67,0.969-3.986-1.662
			c-0.335-2.786-1.575-4.904-3.105-7.152c-2.618-3.848-4.794-7.995-7.171-12.008c-0.418-0.706-0.91-1.368-1.759-1.915
			c1.169,5.934,2.416,11.854,3.489,17.806c1.82,10.092,5.703,19.469,10.026,28.659c1.405,2.988,0.176,4.951-2.569,6.187
			c-5.519,2.484-11.267,4.449-17.252,5.193c-3.531,0.439-4.919,1.818-5.601,5.237c-1.445,7.252-3.344,14.417-5.587,21.475
			c-0.349,1.098,0.03,1.521,0.885,1.939c1.908,0.931,3.623,2.264,5.75,2.742c0.624,0.14,1.253,0.418,1.203,1.161
			c-0.058,0.868-0.832,0.991-1.515,1.101c-3.911,0.631-7.799,1.579-11.772,1.537c-1.945-0.021-2.943,1.654-4.647,1.932
			c-3.118,0.51-6.268,0.077-9.391,0.396c-0.987,0.101-1.984,0.098-2.977,0.134c-0.682,0.025-1.497,0.174-1.75-0.677
			c-0.276-0.928,0.595-1.121,1.188-1.392c1.179-0.538,2.393-1.001,3.577-1.529c1.108-0.494,1.446-1.163,0.705-2.33
			c-5.73-9.025-8.698-19.14-11.398-29.341c-0.365-1.381-0.873-1.848-2.246-1.941c-4.73-0.323-9.28-1.717-13.936-2.502
			c-1.912-0.322-3.569-1.299-5.302-2.096c-1.39-0.639-1.592-1.497-0.851-2.703c7.94-12.921,11.137-27.478,14.476-41.984
			C360.183,364.246,360.624,362.251,361.211,359.641z"/>
		<path style="fill:#FFC476;" d="M391.377,323.592c5.252-2.171,10.612-2.585,16.113-1.663c0.992,0.166,1.957,0.722,1.729,1.754
			c-0.346,1.568,0.621,2.392,1.35,3.42c1.858,2.62,3.736,5.227,5.539,7.885c1.387,2.044,3.393,2.135,4.827,0.068
			c0.424-0.611,0.741-1.367,0.869-2.098c0.314-1.789,1.294-2.67,3.039-3.246c5.55-1.831,8.209-8.497,5.472-13.686
			c-0.818-1.551-0.532-2.211,0.926-3.039c3.345-1.9,6.024-4.527,7.145-8.324c2.035-6.893-2.516-14.297-10.342-12.333
			c-8.31,2.085-12.32-0.509-16.055-8.344c-1.118-2.346-2.186-4.715-3.63-6.895c-1.83-2.761-4.139-4.867-7.349-5.937
			c-1.561-0.52-3.187,0.105-4.807-0.374c-0.242-3.135-2.058-4.922-4.916-5.615c-1.867-0.453-3.797-0.279-5.699,0.045
			c-7.377,1.259-14.45,1.254-21.29-2.789c-5.335-3.154-10.763-1.906-15.624,1.774c-4.014,3.039-5.639,7.085-5.124,12.059
			c0.129,1.243,0.256,2.582-1.667,2.533c-2.847-0.073-4.916,1.405-6.742,3.383c-7.449,8.069-6.211,19.993,2.841,27.298
			c1.921,1.55,1.944,1.97,0.067,3.092c-2.916,1.743-3.808,4.485-3.649,7.634c0.155,3.071,1.652,5.365,4.531,6.623
			c1.824,0.797,3.737,1.304,5.69,1.702c0.767,0.157,1.915,0.307,1.639,1.488c-1.228,5.255,2.011,7.891,5.827,10.256
			c1.306,0.809,2.938,1.176,3.687,2.929c3.365-4.328,6.867-8.24,9.68-12.703c-1.606-0.844-3.185-1.662-2.945-3.582
			c0.25-2,2.141-2.419,3.669-2.511c3.621-0.217,7.323-0.818,10.83,0.899c0.217-0.934,0.276-1.823-0.06-2.645
			c-0.129-0.09-0.184-0.158-0.251-0.171c-0.898-0.186-1.816-0.303-2.695-0.555c-6.208-1.778-12.501-3.442-15.763-9.904
			c-0.352-0.696-0.965-0.583-1.561-0.687c-3.414-0.594-6.243-3.471-6.102-6.985c0.145-3.622-0.368-7.047-1.361-10.47
			c-0.167-0.575-0.116-1.215-0.148-1.827c-0.099-1.885,0.68-2.9,2.689-2.791c3.284,0.179,6.579,0.205,9.853,0.494
			c5.835,0.516,11.514,1.563,15.905,5.968c4.632-6.38,6.704-8.241,11.624-9.93c4.553-1.563,9.199-2.832,13.922-3.787
			c2.429-0.491,3.169,0.158,2.878,2.596c-0.256,2.147-0.659,4.276-1.004,6.458c3.504-0.441,5.402,0.805,6.33,4.012
			c0.925,3.196-0.853,8.974-4.073,10.47c-3.289,1.528-5.099,3.998-6.887,6.806c-1.111,1.745-2.664,3.152-4.248,4.493
			c-1.848,1.564-3.883,2.864-5.969,4.038C390.463,321.977,390.779,322.913,391.377,323.592z"/>
		<path style="fill:#DB4242;" d="M394.816,398.569c1.359,1.555,2.807,2.927,2.923,4.963c0.121,2.133-1.554,3.491-2.634,5.151
			c8.522,0.619,24.855-3.174,30.775-7.112c-0.039-0.219-0.031-0.467-0.126-0.666c-6.539-13.623-10.295-28.016-12.037-42.99
			c-0.275-2.367-0.28-4.794-1.995-6.915c-2.977-3.682-5.654-7.608-8.423-11.457c-0.441-0.613-1.38-1.094-0.55-2.764
			c3.904,4.031,6.908,8.415,10.007,12.725c3.196,4.444,5.993,9.151,8.943,13.815c2.67-1.504,5.427-1.867,8.508-2.046
			c-7.134-12.095-14.133-23.868-22.334-34.948c-4.431,3.228-9.346,1.712-14.07,2.142c-0.216,2.888-0.425,5.684-0.63,8.421
			c4.624,2.165,4.761,4.431,0.648,8.284c2.89,2.979,2.914,4.863,0.124,9.539c3.579,4.684,3.461,6.801-0.71,11.658
			c1.781,1.018,2.314,2.811,2.626,4.623c0.464,2.694-0.906,4.816-2.652,6.693c1.657,1.535,2.659,3.237,2.943,5.27
			c0.305,2.183-1.363,3.575-2.4,5.17C397.807,391.588,398.057,394.015,394.816,398.569z"/>
		<path style="fill:#ABEFFF;" d="M403.576,284.124c-0.703,0.09-1.311,0.082-1.864,0.251c-4.308,1.317-8.6,2.685-12.907,4.004
			c-3.768,1.153-6.517,3.608-8.695,6.773c-0.843,1.225-1.547,2.545-2.398,3.961c-7.337-7.979-16.899-7.202-26.393-7.555
			c0.254,5.475,1.927,9.934,6.747,12.278c6.007,2.921,12.3,3.785,18.458,0.322c1.849-1.04,3.229-0.764,5.088-0.022
			c8.222,3.283,12.508,2.434,17.165-4.556C401.865,294.945,403.246,289.799,403.576,284.124z"/>
		<path style="fill:#42AFC1;" d="M384.086,426.455c-0.349-1.712-0.735-3.257-0.972-4.824c-1.368-9.034-2.725-18.069-4.039-27.111
			c-1.252-8.616-0.719-17.032,2.881-25.108c0.467-1.048,1.184-2.063,1.19-3.195c-3.658-1.058-5.759,0.5-7.388,3.594
			c-4.078,7.744-6.044,15.903-5.787,24.664c0.286,9.73,1.934,19.229,4.373,28.62c1.199,4.617,1.181,4.587,5.881,4.138
			C381.45,427.116,382.616,426.856,384.086,426.455z"/>
		<path style="fill:#ABEFFF;" d="M393.483,424.308c0.918-6.289-0.759-12.172-1.409-18.143c-0.709-6.523-1.483-13.044-1.967-19.586
			c-0.479-6.486-0.675-12.995-0.54-19.506c0.008-0.382,0.004-0.771-0.379-1.017c-1.517,0-3.044,0-4.669,0
			c-4.432,9.046-5.125,18.566-4.035,28.371c0.775,6.973,2.002,13.874,3.076,20.8c0.555,3.579,1.11,7.159,1.663,10.73
			c1.367-0.007,2.144-0.208,2.15-1.754c0.029-7.73,0.306-15.46,0.218-23.187c-0.042-3.688,1.288-7.694-1.759-10.948
			c-0.338-0.361-0.279-0.909,0.137-1.235c0.439-0.344,0.911-0.151,1.209,0.237c1.107,1.441,2.396,2.799,2.392,4.8
			c-0.017,7.426-0.032,14.852-0.044,22.277c-0.005,2.728-0.001,5.456-0.001,8.098C391.009,424.765,392.2,424.534,393.483,424.308z"
			/>
		<path style="fill:#FFD5B8;" d="M358.357,306.467c0.937,5.527,4.05,8.788,8.78,10.71c2.273,0.924,4.589,1.677,7.005,2.124
			c12.561,2.322,21.05-1.363,27.253-12.483c0.467-0.837,0.974-1.157,1.851-1.417c4.432-1.317,7.182-6.552,5.627-10.745
			c-2.619,0.649-3.283,3.541-5.749,5.206c0.116-3.59,3.122-4.605,4.632-6.713c-3.422-0.409-3.402-0.4-4.566,2.414
			c-1.361,3.29-3.249,6.245-5.884,8.663c-1.765,1.619-3.695,2.863-6.232,3.083c-3.842,0.333-7.431-0.383-10.791-2.187
			c-1.317-0.707-2.21-0.287-2.934,0.739c-0.882,1.251,0.156,1.759,1.045,2.236c0.417,0.224,0.834,0.383,0.669,1.115
			c-2.178,0.993-3.167-0.704-4.216-2.094C369.268,309.162,363.909,308.094,358.357,306.467z"/>
		<path style="fill:#FFFFFF;" d="M391.999,330.795c-2.985,4.972-5.829,9.993-7.571,15.554c-0.22,0.702-0.246,1.665-1.244,1.679
			c-0.914,0.013-1.178-0.849-1.478-1.548c-0.179-0.419-0.308-0.86-0.46-1.291c-1.531-4.33-3.734-8.321-6.049-12.288
			c-3.778,8.877-5.095,17.696-0.447,26.543c4.984-0.716,9.977-1.17,15.113-1.309C390.313,348.912,391.496,339.922,391.999,330.795z"
			/>
		<path style="fill:#DB4242;" d="M373.928,330.237c-3.559,0.272-6.637,0.041-9.099,3.686c-5.771,8.54-12.38,16.484-19.452,24.085
			c3.628,1.811,3.257,5.606,4.475,8.73c3.84-2.963,7.523-5.807,11.21-8.646c0.6-0.462,0.721-1.146,0.86-1.814
			c0.341-1.642,0.609-3.299,0.992-4.931c1.039-4.425,1.889-8.906,3.524-13.22c2.259,1.425,3.4-2.378,5.49-0.659
			C372.78,335.022,373.477,332.796,373.928,330.237z"/>
		<path style="fill:#660C0C;" d="M370.511,352.757c-3.867,20.255-10.68,39.582-18.63,58.731c4.852,0.602,9.486,2.63,14.727,2.366
			c-1.001-6.106-1.907-12.033-2.526-17.999c-1.171-11.283,0.12-21.84,8.914-30.162c0.805-0.762,0.828-1.437,0.531-2.417
			C372.469,359.785,371.508,356.266,370.511,352.757z"/>
		<path style="fill:#660C0C;" d="M373.6,429.578c1.679,5.202,3.85,10.123,6.385,14.886c1.669,3.135,1.693,3.123,0.494,5.999
			c2.542,0,5.082,0,7.534,0c0.48-7.887-0.25-15.528-0.445-23.469C382.933,428.629,378.289,428.849,373.6,429.578z"/>
		<path style="fill:#FFD5B8;" d="M382.991,343.922c2.479-6.25,5.072-11.811,8.953-16.676c-1.61-1.909-2.766-3.856-3.517-6.057
			c-3.308,0.753-6.518,1.277-9.892,1.341c0.117,2.98,0,5.721-2.96,7.338C378.128,334.451,380.797,338.801,382.991,343.922z"/>
		<path style="fill:#660C0C;" d="M389.541,426.196c-0.01,7.673,1.123,15.057,0.058,22.646c4.114-0.208,7.838-0.419,11.952-1.261
			c-0.998-0.719-1.597-1.152-2.198-1.582c-3.716-2.66-3.695-2.655-2.523-7.059c1.186-4.453,2.325-8.918,3.569-13.702
			C396.672,425.877,393.32,426.563,389.541,426.196z"/>
		<path style="fill:#ABEFFF;" d="M376.974,366.223c-0.882-0.343-1.527-0.186-2.135,0.452c-5.443,5.717-8.993,12.254-9.186,20.363
			c-0.102,4.299,0.375,8.533,0.903,12.779c1.131,9.104,2.81,18.083,5.91,26.751c0.308,0.861,0.418,1.858,1.783,1.343
			c0.031-0.259,0.126-0.495,0.073-0.69c-2.267-8.289-4.201-16.647-5.211-25.193c-0.728-6.154-1.18-12.317,0.092-18.462
			C370.514,377.228,372.824,371.323,376.974,366.223z"/>
		<path style="fill:#FFDC48;" d="M395.188,414.133c1.431,0.536,2.711,0.674,4.022,0.609c8.914-0.444,17.432-2.634,25.655-5.992
			c2.928-1.195,3.039-1.793,1.955-5.56c-4.845,2.886-10.067,4.709-15.502,5.855c-5.428,1.145-10.939,1.722-16.529,1.65
			C394.934,411.943,395.056,412.995,395.188,414.133z"/>
		<path style="fill:#FFD5B8;" d="M429.28,378.718c0.476-0.17,0.58-0.523,0.652-0.91c0.114-0.618-0.186-1.526,0.857-1.564
			c0.754-0.027,0.879,0.706,1.156,1.235c0.458,0.873,0.896,1.765,1.445,2.579c0.604,0.895,1.384,1.791,2.593,1.442
			c1.335-0.386,1.785-1.501,1.803-2.853c0.043-3.308-1.579-5.85-3.522-8.284c-1.717,1.016-3.266,1.973-4.859,2.851
			c-0.515,0.284-0.854,0.532-0.834,1.175C428.618,375.864,428.448,377.371,429.28,378.718z"/>
		<path style="fill:#ABEFFF;" d="M389.887,359.972c-5.098-0.602-9.897,0.688-14.93,0.592c0.377,1.38,0.708,2.592,1.046,3.83
			c3.856-0.197,7.602-0.482,11.321-0.04c1.701,0.202,2.462-0.208,2.392-1.963C389.688,361.716,389.806,361.034,389.887,359.972z"/>
		<path style="fill:#FFD5B8;" d="M341.783,371.628c-1.255-1.209-1.662-3.383-3.686-3.716c-2.813-0.464-5.435,0.365-7.858,1.838
			c-0.645,0.392-1.114,0.858-0.834,1.662c0.246,0.708,0.775,1.101,1.551,1.154c1.384,0.094,2.746,0.061,4.029-0.562
			c0.588-0.285,1.15-0.846,1.778-0.262c0.323,0.928-0.745,1.575-0.348,2.452C338.572,374.783,339.538,374.33,341.783,371.628z"/>
		<path style="fill:#FFDC48;" d="M433.775,368.439c-0.702-1.642-1.281-3.04-1.898-4.42c-0.286-0.638-0.646-1.27-1.52-1.097
			c-2.311,0.457-4.703,0.596-6.855,1.691c-0.379,0.193-0.947,0.353-0.249,1.053c1.539-1.051,3.443-1.667,4.587,0.172
			c1.289,2.072-0.593,3.434-2.003,4.639c1.193,1.891,1.218,1.937,2.82,1.042C430.314,370.592,431.916,369.564,433.775,368.439z"/>
		<path style="fill:#FFDC48;" d="M338.472,365.042c1.654,1.972,3.194,3.808,4.733,5.643c-1.206-4.544,0.149-6.317,4.484-5.6
			c-0.098-1.479-0.544-2.837-1.171-4.115c-0.895-1.823-2.115-2.025-3.583-0.586C341.466,361.824,340.083,363.352,338.472,365.042z"
			/>
		<path style="fill:#DB4242;" d="M365.906,363.016c-2.187-3.034-1.225-5.683,0.891-8.099c-1.055-1.212-1.712-2.391-1.841-3.844
			c-1.81,7.735-3.516,15.454-5.211,23.177c-0.043,0.194,0.028,0.413,0.068,0.876c1.026-1.477,2.17-2.543,3.521-3.322
			C361.714,368.397,362.425,365.957,365.906,363.016z"/>
		<path style="fill:#FFDC48;" d="M392.708,325.592c3.965,2.31,12.46,1.295,14.881-1.685
			C404.314,322.336,394.153,323.391,392.708,325.592z"/>
		<path style="fill:#42AFC1;" d="M394.595,415.474c0,1.04-0.04,1.719,0.007,2.392c0.149,2.118,0.33,4.234,0.504,6.417
			c1.082-0.134,2.051-0.251,3.018-0.375c1.024-0.132,1.616-0.511,1.538-1.753c-0.122-1.938-0.032-3.889-0.032-5.967
			C398.089,416.163,396.49,416.202,394.595,415.474z"/>
		<path style="fill:#FFDC48;" d="M376.198,327.625c-2.017-2.031-9.441-2.219-12.096-0.437
			C365.627,329.382,372.999,329.704,376.198,327.625z"/>
		<path style="fill:#FFD5B8;" d="M357.035,309.809c0.556-3.993-2.424-5.736-4.963-7.908
			C351.541,306.324,353.756,309.714,357.035,309.809z"/>
		<path style="fill:#FFDC48;" d="M391.917,355.482c0,3.337,0,6.337,0,9.67c1.904-1.358,3.276-2.748,3.1-4.93
			C394.864,358.331,394.282,356.52,391.917,355.482z"/>
		<path style="fill:#FFDC48;" d="M391.947,376.307c3.576-2.703,3.508-7.103,0-8.828
			C391.947,370.373,391.947,373.198,391.947,376.307z"/>
		<path style="fill:#FFDC48;" d="M346.283,409.493c1.735,0.301,2.623,1.164,3.971,1.121c0.769-1.574,1.555-3.184,2.326-4.763
			C348.568,403.698,348.757,408.038,346.283,409.493z"/>
		<path style="fill:#FFDC48;" d="M371.658,338.282c-2.454,0.67-3.355,2.165-3.682,4.022c-0.281,1.593,0.029,3.041,2.187,3.676
			C370.064,343.392,371.046,341.157,371.658,338.282z"/>
		<path style="fill:#FFDC48;" d="M369.844,347.12c-2.135,0.219-3.2,1.31-3.575,2.97c-0.382,1.691,0.33,3.043,1.954,4.176
			C368.779,351.819,369.285,349.585,369.844,347.12z"/>
		<path style="fill:#FFDC48;" d="M392.695,389.635c0.227,2.723,0.429,5.15,0.648,7.787
			C396.274,394.367,396.091,391.495,392.695,389.635z"/>
		<path style="fill:#FFDC48;" d="M392.042,353.715c2.129-1.218,2.821-2.845,2.541-4.875c-0.164-1.187-0.591-2.32-2.181-2.423
			C392.284,348.789,392.173,351.053,392.042,353.715z"/>
		<path style="fill:#FFDC48;" d="M392.11,378.996c0.116,2.657,0.222,5.076,0.339,7.749
			C395.449,384.194,395.311,381.557,392.11,378.996z"/>
		<path style="fill:#FFDC48;" d="M361.668,381.015c0.825-2.72,1.543-5.086,2.356-7.766
			C360.645,374.663,359.668,377.973,361.668,381.015z"/>
		<path style="fill:#FFDC48;" d="M393.69,399.633c-0.156,2.564,0.383,4.733,0.578,7.049
			C397.232,404.235,397.114,402.315,393.69,399.633z"/>
		<path style="fill:#FFDC48;" d="M357.862,391.807c-3.309,0.791-4.415,3.896-2.548,6.86
			C356.161,396.388,356.962,394.231,357.862,391.807z"/>
		<path style="fill:#FFDC48;" d="M361.1,382.621c-3.434,1.315-4.356,4.068-2.473,6.997
			C359.452,387.283,360.24,385.055,361.1,382.621z"/>
		<path style="fill:#FFDC48;" d="M393.363,338.54c-0.653,1.762-0.725,3.516-0.503,5.54c1.524-0.72,2.634-1.579,2.609-3.205
			C395.451,339.645,394.718,338.794,393.363,338.54z"/>
		<path style="fill:#FFDC48;" d="M345.097,370.082c0.877-0.746,1.957-1.121,2.705-2.186c-0.867-0.934-1.424-2.725-3.106-1.348
			C343.402,367.605,343.788,368.917,345.097,370.082z"/>
		<path style="fill:#FFDC48;" d="M354.662,400.812c-2.777-1.184-3.372-0.615-3.232,2.913
			C354.618,404.959,353.552,401.803,354.662,400.812z"/>
		<path style="fill:#FFDC48;" d="M366.178,364.567c-2.481,2.123-2.942,4.2-1.636,6.586
			C365.414,369.094,365.821,367.042,366.178,364.567z"/>
		<path style="fill:#ABEFFF;" d="M402.719,416.248c-1.837,0.137-2.317,2.28-1.4,5.452
			C401.785,419.886,402.23,418.152,402.719,416.248z"/>
		<path style="fill:#FFDC48;" d="M367.885,355.891c-2.074,1.852-2.237,3.637-1.159,6.281
			C367.161,359.817,367.48,358.086,367.885,355.891z"/>
		<path style="fill:#FFDC48;" d="M426.769,367.031c-0.14-0.674-0.606-1.006-1.294-0.825c-0.656,0.173-1.43,0.48-1.328,1.296
			c0.075,0.597,0.351,1.475,1.278,1.209C426.158,368.502,426.756,367.988,426.769,367.031z"/>
		<path style="fill:#DB4242;" d="M360.229,381.386c-0.784-1.02-1.039-2.141-1.219-3.856c-0.499,2.008-1.122,3.378-1.166,5.089
			C358.651,382.202,359.297,381.868,360.229,381.386z"/>
		<path style="fill:#FFFFFF;" d="M385.023,299.897c-0.003-3.911,3.072-7.189,6.266-6.913c2.068,0.179,2.982,1.787,1.877,3.539
			C391.314,299.462,388.386,299.984,385.023,299.897z"/>
		<path style="fill:#FFFFFF;" d="M392.273,294.841c-2.554-0.821-4.143,0.23-5.782,3.675
			C389.051,298.255,391.038,297.35,392.273,294.841z"/>
		<path style="fill:#FFFFFF;" d="M369.781,300.595c-2.809,0.521-5.263,0.019-7.637-1.025c-0.964-0.424-1.292-1.284-1.069-2.28
			c0.231-1.029,1.012-1.481,2.007-1.539C366.401,295.558,368.451,297.249,369.781,300.595z"/>
		<path style="fill:#FFFFFF;" d="M367.33,299.429c-1.938-2.181-3.313-2.567-4.781-1.371
			C363.954,299.119,365.611,299.116,367.33,299.429z"/>
		<path style="fill:#42210B;" d="M373.033,310.909c3.183,2.989,6.447,3.063,9.839,0.611c0.296-0.699-0.87-1.855,0.428-2.305
			c0.977-0.338,1.169,0.781,1.653,1.285c0.856,0.891,1.941,1.339,3.2,1.604c-0.549,1.43-1.651,1.348-2.348,0.995
			c-1.39-0.704-2.248-0.037-3.281,0.674c-2.536,1.748-5.25,2.55-8.09,0.751C373.354,313.84,372.181,312.968,373.033,310.909z"/>
	</g>
	<g>
		<path style="fill:#42210B;" d="M99.94,378.187c-2.166-0.165-4.016-0.829-4.413-3.056c-0.454-2.549,1.465-3.769,3.465-4.863
			c-1.377-1.983-2.046-4-0.517-6.01c1.524-2.003,3.655-2.254,6.149-1.454c-0.465-4.763-3.146-8.717-3.801-13.74
			c-2.955,3.464-6.453,5.866-9.529,8.741c-1.737,1.624-3.47,3.222-5.387,4.628c-4.671,3.423-10.176,5.204-15.281,7.768
			c-1.923,0.966-4.43,1.326-5.868-0.159c-1.647-1.7-3.571-3.258-4.866-5.232c-1.294-1.973,0.142-3.883,2.503-3.675
			c2.205,0.194,4.407,0.428,6.609,0.656c0.469,0.048,0.842-0.019,1.265-0.316c3.39-2.38,6.397-5.167,9.147-8.281
			c-2.574-1.674-3.053-3.891-1.412-6.13c1.6-2.184,4.49-2.187,7.308,0.085c2.857-3.433,5.717-6.868,8.676-10.424
			c-8.312,2.004-9.526,1.52-11.655-4.53c-11.605-0.243-16.458-11.737-11.293-19.668c-3.486-1.778-5.73-4.52-6.602-8.415
			c-1.122-5.014,1.77-9.668,6.833-10.63c2.019-0.384,4.066-0.618,6.1-0.93c1.295-0.199,2.533-0.6,3.619-1.334
			c1.898-1.282,3.074-2.637,2.648-5.402c-0.801-5.198,0.808-10.143,2.948-14.85c3.451-7.59,8.803-13.934,13.688-20.581
			c1.042-1.418,2.315-2.71,3.119-4.25c1.773-3.396,4.667-4.964,8.189-5.969c5.05-1.441,10.022-3.144,15.164-4.274
			c0.907-0.2,1.959-0.186,2.478-1.587c0.822-2.216,3.16-2.593,5.354-1.199c1.831,1.164,2.315,3.314,1.116,4.961
			c-1.122,1.542-3.63,1.758-5.338,0.421c-0.354-0.277-0.594-0.699-1.108-1.322c-4.196,5.758-10.527,9.58-12.538,16.904
			c0.271-0.107,0.371-0.114,0.403-0.164c4.684-7.325,12.386-9.115,20.064-10.968c2.451-0.592,5.098-0.554,6.882-3.002
			c0.77-1.057,2.398-1.033,3.522,0.016c0.957,0.892,1.367,2.036,0.765,3.325c-0.707,1.514-1.971,2.104-3.566,1.863
			c-0.641-0.096-1.236-0.496-1.811-0.74c-3.785,3.422-7.589,6.744-11.252,10.215c-2.34,2.218-3.121,5.296-3.995,8.436
			c4.126-4.836,9.717-4.361,15.111-4.493c3.368-0.083,6.738-0.041,10.107-0.058c0.816-0.004,1.577,0.133,2.133-0.852
			c1.017-1.8,2.705-2.073,4.573-1.507c1.607,0.486,2.416,1.681,2.346,3.275c-0.078,1.778-1.126,2.97-2.865,3.455
			c-1.976,0.552-3.208-0.41-4.076-2.076c-0.062-0.119-0.232-0.181-0.468-0.355c-5.872,3.332-11.43,7.205-16.723,11.474
			c-0.835,0.673-0.627,1.509-0.548,2.306c0.464,4.65,0.766,9.299,0.115,13.953c-0.141,1.007,0.609,1.363,1.209,1.747
			c1.846,1.18,3.916,1.638,6.094,1.73c2.903,0.123,5.813,0.281,8.546,1.409c3.032,1.252,5.278,3.341,6.533,6.408
			c1.132,2.765,0.523,5.231-1.361,7.457c-0.469,0.554-0.929,0.932-0.669,1.945c1.4,5.454-0.761,10.393-5.663,13.176
			c-1.035,0.588-1.586,1.041-1.323,2.448c0.438,2.342-0.769,4.116-3.175,5.245c-1.313,0.616-2.664,1.148-3.602,2.491
			c0.134,0.236,0.217,0.555,0.423,0.72c6.508,5.199,12.951,10.44,20.451,14.289c2.305,1.183,4.101,1.177,6.348,0.661
			c2-0.46,4.098-0.643,6.089,0.204c2.139,0.909,2.497,2.711,0.829,4.341c-1.958,1.914-4.547,2.331-7.089,2.752
			c-0.385,2.733-1.099,3.178-3.83,2.255c-2.77-0.937-5.003-3.25-8.266-3.087c0.037,2.849-1.135,5.135-4.091,6.037
			c-1.783,0.543-3.396-0.172-4.407-1.709c-1.661-2.524-0.713-4.804,1.161-7.112c-5.027-2.06-9.516-4.864-14.028-7.978
			c-2.432,5.633-4.628,11.115-5.873,17.355c1.899-0.998,3.536-1.188,5.144-0.112c1.608,1.076,2.122,2.527,1.576,4.324
			c3.009,1.635,3.921,3.183,3.201,5.333c-0.697,2.081-2.404,2.984-4.942,2.718c4.928,21.579,7.493,43.331,4.107,65.653
			c1.844-0.312,3.137,0.638,3.822,2.585c0.543,1.544,0.463,2.852-1.19,3.86c1.244,0.623,2.342,1.144,3.41,1.721
			c0.545,0.294,1.029,0.694,0.959,1.43c-0.077,0.809-0.787,0.983-1.33,1.04c-3.646,0.383-7.291,0.909-10.972,0.603
			c-1.378-0.115-2.072-1.18-2.73-2.234c-1.688-2.703-2.616-5.765-4.044-8.621c-0.038,2.592-0.529,5.15,0.149,7.699
			c0.381,1.431-0.086,2.405-1.717,2.538c-4.638,0.377-9.274,0.762-13.913,1.129c-0.527,0.042-1.132,0.087-1.401-0.521
			c-0.318-0.719,0.19-1.118,0.683-1.513c0.831-0.664,1.647-1.346,2.649-2.167c-1.397-1.052-2.486-2.146-1.999-3.97
			c0.497-1.858,1.91-2.409,3.637-2.531c-6.041-12.182-10.782-24.741-15.118-37.454c-1.799-5.275-3.349-10.636-3.051-16.34
			C98.8,383.519,99.258,380.981,99.94,378.187z"/>
		<path style="fill:#ABEFFF;" d="M114.343,430.916c2.374-1.782,4.572-1.364,6.854,0.069c0.502-2.438,1.996-3.282,4.4-2.951
			c-3.134-11.764-5.122-23.463-6.947-34.913c-0.89-0.8-2.29,0.537-2.43-1.05c-0.076-0.866,0.734-1.061,1.408-1.223
			c1.12-0.269,1.977-0.014,2.286,1.239c0.091,0.371,0.252,0.731,0.296,1.105c0.902,7.733,2.47,15.343,4.212,22.92
			c0.942,4.096,1.958,8.176,3.054,12.733c1.132-2.092,1.733-4.192,4.024-3.901c2.711,0.344,2.402,3.096,3.326,4.971
			c1.552-1.234,3.114-1.143,4.573-0.09c0.527-0.691,0.549-1.307,0.577-1.918c0.736-15.87-0.206-31.64-3.219-47.238
			c-0.982-5.08-2.424-10.15-5.736-14.324c-0.955-1.204-1.309-2.363-1.25-3.763c0.289-6.879,2.88-13.08,5.708-19.204
			c0.684-1.481,1.611-2.096,3.2-0.94c1.417,1.031,3.005,1.822,4.484,2.771c6.439,4.131,13.625,6.403,20.922,8.554
			c0.254-0.66,0.475-1.22,0.686-1.784c0.962-2.582,0.636-3.513-1.998-4.263c-1.884-0.537-3.538-1.427-5.153-2.434
			c-6.709-4.183-12.771-9.225-18.835-14.264c-2.086-1.734-4.111-3.593-6.889-4.376c-0.594,1.708-1.127,3.415-2.686,4.265
			c-1.952,1.064-0.661,3.329-1.957,4.623c-0.589,0.588-1.014,1.427-1.802,1.713c-1.361,0.493-1.59,1.515-1.81,2.758
			c-0.433,2.439-1.514,4.874-4.006,5.393c-1.923,0.4-3.555,1.217-5.332,1.83c-3.172,1.094-5.184-0.402-6.741-4.58
			c-5.719,0.007-7.015-3.598-6.142-7.257c-1.098-0.449-2.133-1.036-2.907-1.833c-4.523,6.27-9.453,12.048-14.693,17.571
			c-3.214,3.387-6.302,6.906-9.991,9.802c-2.795,2.194-2.962,3.299-0.697,6.357c11.526-5.85,22.203-12.765,29.815-23.812
			c-1.513,5.193,0.494,9.68,2.224,14.249c1.392,3.676,2.076,7.503,1.781,11.466c-0.063,0.852-0.124,1.682-0.757,2.329
			c-3.903,3.982-5.314,8.926-5.651,14.329c-0.292,4.681,0.86,9.093,2.278,13.471C106.252,409.911,109.877,420.437,114.343,430.916z"
			/>
		<path style="fill:#FFDC48;" d="M152.622,260.051c-3.729-0.333-6.938,0.386-10.13,0.232c-5.958-0.286-11.211,0.948-15.264,5.669
			c-0.572,0.667-1.352,1.271-2.066,0.727c0.582-10.206,7.438-16.208,14.323-22.239c-3.938,0.45-7.398,1.862-10.963,2.92
			c-2.997,0.89-5.263,2.521-7.179,4.957c-1.841,2.34-3.986,4.442-5.998,6.648c-0.368,0.403-0.764,0.796-1.37,0.606
			c-0.408-0.128-0.665-0.511-0.525-0.897c1.32-3.623,1.64-7.666,4.248-10.751c2.934-3.471,5.977-6.85,9.033-10.336
			c-0.714-0.268-1.132-0.087-1.58,0.034c-5.371,1.458-10.635,3.243-15.893,5.055c-1.387,0.478-2.346,1.236-3.171,2.422
			c-4.411,6.341-8.728,12.758-13.39,18.911c-3.259,4.301-5.473,8.995-6.777,14.144c-0.567,2.24-1.21,4.539-0.872,6.971
			c2.35-0.392,4.518-0.794,6.699-1.112c8.971-1.309,17.943-1.539,26.967-0.377c3.711,0.478,7.366,1.32,11.089,1.622
			c1.962,0.159,4.109-0.591,5.374,1.702c0.041,0.074,0.417-0.037,0.722-0.072c0.404-2.298,0.432-4.695-0.066-6.844
			c-1.639-7.074,1.864-11.111,7.529-14.244C146.406,264.117,149.288,262.135,152.622,260.051z"/>
		<path style="fill:#D17442;" d="M86.952,321.798c-4.179-1.51-5.585-4.316-4.42-8.482c1.148-4.104,3.913-6.797,7.473-8.859
			c1.152-0.667,2.542-1.083,3.154-2.588c-3.48-2.834-4.851-6.708-5.58-10.961c-0.34-1.984,0.576-2.668,2.256-2.874
			c1.817-0.223,3.636-0.469,5.461-0.571c1.441-0.081,2.293-0.617,2.375-2.294c-3.878,0.171-7.602,0.985-11.351,1.604
			c-0.777,0.128-1.189,0.647-1.337,1.377c-0.726,3.587-3.223,5.192-6.552,5.819c-1.721,0.324-3.453,0.653-5.195,0.78
			c-3.506,0.255-6.44,1.67-7.482,5.056c-1.095,3.555-0.005,6.911,2.674,9.659c1.614,1.655,3.561,2.339,5.803,1.943
			c0,0.539,0.052,0.794-0.007,0.824c-3.585,1.763-3.596,5.045-3.176,8.218c0.781,5.893,4.579,9.234,11.265,10.139
			c1.373,0.186,1.956,0.533,2.183,1.988c0.374,2.399,2.074,3.646,4.511,3.737c2.459,0.093,4.588-1.049,6.715-1.997
			c0.942-0.42,1.763-1.42,2.065-2.581c0.707-2.718,1.946-3.409,4.652-2.485c0.998,0.341,1.948,0.822,2.942,1.249
			c2.549-1.873,3.518-4.257,2.101-7.59c-10.655,0.453-15.79-6.506-19.452-15.266c-2.385,1.641-4.073,4.145-4.485,6.547
			c-0.636,3.707,1.176,5.943,4.837,5.961c0.407,0.002,0.749,0.101,1.023,0.659c-0.514,1.313-0.794,2.729,0.245,4.146
			c1.171,1.597,2.771,1.088,4.421,0.904c-0.356,2.236-1.849,2.208-3.295,2.013C88.305,327.539,86.981,325.415,86.952,321.798z"/>
		<path style="fill:#D17442;" d="M142.39,331.299c1.212-1.774,2.828-2.628,4.538-3.331c1.399-0.575,2.673-1.604,2.176-3.065
			c-1.016-2.986,0.513-4.023,2.829-5.17c4.247-2.103,5.734-6.484,3.894-10.837c-0.461-1.09-0.101-1.585,0.703-2.292
			c2.306-2.029,2.742-4.56,1.349-7.206c-1.301-2.469-3.265-4.19-5.948-5.084c-2.363-0.788-4.793-0.807-7.243-0.877
			c-3.216-0.092-6.218-0.814-8.352-3.551c-0.507-0.65-1.118-1.254-2.101-0.978c-0.697,3.402-1.338,6.787-3.464,9.644
			c-0.213,0.286-0.415,0.722-0.36,1.044c0.685,4.062,1.188,8.219,4.014,11.509c1.873,2.181,3.788,2.484,6.291,1.221
			c0.237-0.893-0.942-2.031,0.443-2.86c1.445,0.524,0.942,3.151,3.241,2.899c1.849-0.203,2.412-2.128,4.048-2.68
			c-0.348,2.561-3.108,4.404-5.474,3.791c-0.568-0.147-1.098-0.682-1.71-0.235c-2.486,1.813-4.87,1.091-7.295-0.424
			c-2.644,3.417-6.104,5.623-9.86,7.413c-2.352,1.121-2.597,3.015-0.623,4.72c0.571,0.493,1.142,0.617,1.596,0.11
			c0.969-1.083,1.773-2.408,3.359-2.589c1.878-0.214,2.298,2.086,3.462,2.455C135.892,326.194,138.934,328.851,142.39,331.299z"/>
		<path style="fill:#FFD5B8;" d="M128.916,300.905c-0.331,0.067-0.415,0.062-0.474,0.099c-0.388,0.244-0.765,0.508-1.157,0.747
			c-4.46,2.721-8.987,4.977-14.44,2.852c-1.035-0.404-2.236-0.251-3.059,0.66c0.019,0.923,1.154,0.871,1.191,1.789
			c-1.296,1.304-2.206,0.374-3.095-0.617c-0.371-0.413-0.326-1.177-1.213-1.138c-4.121,0.181-7.947-1.126-11.892-2.527
			c-1.022,1.964-3.266,2.338-4.861,3.625c0.634,2.691,1.992,4.894,3.394,7.077c2.536,3.95,6.027,6.312,10.756,7.024
			c5.912,0.891,11.75,0.534,17.474-0.908c4.138-1.043,7.634-3.418,10.385-6.758c0.413-0.502,1.079-0.998,0.532-1.79
			C130.359,308.005,129.74,304.448,128.916,300.905z"/>
		<path style="fill:#DF88FF;" d="M89.187,289.841c-0.163,2.618,0.848,6.582,2.718,8.627c4.368,4.777,10.151,5.465,16.141,4.759
			c2.383-0.281,4.648-0.681,6.97,0.178c1.47,0.543,3.036,0.581,4.495,0.062c3.559-1.266,6.87-2.989,9.329-5.978
			c2.563-3.115,3.069-6.919,3.865-10.89c-2.574,0.329-4.784,0.482-6.938,0.913c-5.127,1.027-10.059,2.482-13.805,6.534
			c-0.804,0.87-0.988,2.551-2.306,2.597c-1.401,0.049-1.414-1.715-2.178-2.58C102.33,288.233,95.897,288.547,89.187,289.841z"/>
		<path style="fill:#FFDC48;" d="M109.182,341.376c0.041,0.418,0.099,0.717,0.095,1.016c-0.023,1.816,0.732,3.026,2.541,3.59
			c1.661,0.518,2.959,0.435,3.723-1.414c0.243-0.587,0.943-0.717,1.577-0.666c2.604,0.206,4.536-0.654,4.654-3.163
			c0.131-2.81,1.139-4.214,3.512-5.415c1.82-0.922,0.168-3.398,1.083-4.512c0.981-1.194,2.976-1.598,3.465-3.366
			c0.288-1.043,0.173-2.469-0.603-3.056c-1.1-0.833-1.9,0.402-2.574,1.203c-1.471,1.748-3.059,3.403-4.192,5.422
			c-1.977,3.525-4.226,6.898-5.899,10.592c-0.716,1.58-1.678,1.771-2.645,0.297c-2.901-4.424-7.476-7.143-11.028-10.905
			c-0.617-0.653-1.742-0.982-2.772-0.578c-0.496,0.194-1.018,0.51-0.909,1.164c0.176,1.056,0.867,1.721,1.782,2.236
			c0.709,0.399,1.644,0.342,2.189,1.044C101.336,339.687,102.39,340.86,109.182,341.376z"/>
		<path style="fill:#FFD5B8;" d="M122.927,326.819c-2.073-1.274-2.368-3.377-2.916-5.451c-3.587,0.936-7.091,1.581-10.84,1.597
			c1.171,3.568,0.708,6.525-2.651,8.604c3.382,2.732,6.021,5.723,8.593,8.993C117.476,335.741,119.968,331.286,122.927,326.819z"/>
		<path style="fill:#FFDC48;" d="M144.451,448.392c0.03-0.193,0.061-0.385,0.091-0.578c-1.336-0.722-2.641-1.51-4.015-2.151
			c-3.066-1.43-3.258-1.783-2.6-5.144c0.44-2.245,0.873-4.493,1.205-6.755c0.214-1.454-0.563-2.654-1.813-3.132
			c-1.145-0.438-1.638,0.757-2.14,1.614c-0.227,0.387-0.493,0.794-1.351,0.688c-1.505-1.808,0.035-5.146-2.803-6.79
			c-2.228,2.548-2.397,5.552-1.689,8.413c1.005,4.064,2.689,7.937,4.429,11.765c0.66,1.451,1.598,2.109,3.166,2.082
			C139.437,448.36,141.944,448.392,144.451,448.392z"/>
		<path style="fill:#FFDC48;" d="M122.722,434.441c-0.319,0-0.714,0.123-0.889-0.021c-0.817-0.674-1.527-1.481-2.363-2.127
			c-1.046-0.809-2.286-1.063-3.374-0.193c-1.043,0.834-0.319,1.828,0.138,2.682c1.257,2.355,2.483,4.732,3.877,7.006
			c0.7,1.142,0.625,1.819-0.377,2.715c-1.192,1.065-2.177,2.36-3.56,3.898c2.911-0.086,5.236-0.438,7.595-0.136
			c1.626,0.208,2.736-0.61,3.002-2.411c0.618-4.188,0.111-8.325-0.583-12.434c-0.241-1.429-0.636-2.981-2.207-3.747
			C122.229,430.946,123.419,432.902,122.722,434.441z"/>
		<path style="fill:#FFD5B8;" d="M109.756,294.601c3.021-4.733,7.783-6.187,12.477-7.918c-0.522-0.816-1.186-0.89-1.849-0.987
			c-6.047-0.881-12.124-1.086-18.227-0.956c-1.849,0.039-2.925,0.78-3.405,2.687C103.449,288.184,107.264,290.164,109.756,294.601z"
			/>
		<path style="fill:#FFD5B8;" d="M168.34,353.783c3.345-0.373,6.947-0.214,9.603-3.522c-3.394-2.359-6.643-1.121-9.748-0.209
			c-2.046,0.601-1.533,2.938-2.41,4.357c0.989,0.811,1.847,1.361,2.977,1.481C168.841,355.088,167.703,354.806,168.34,353.783z"/>
		<path style="fill:#FFD5B8;" d="M67.371,365.764c0.084,1.872-1.755,1.217-2.173,2.187c1.97,1.681,3.531,1.657,6.408-0.172
			c-0.91-1.365-1.6-2.856-2.022-4.446c-2.882-0.128-5.637-0.25-8.662-0.383C62.146,366.699,65.142,365.521,67.371,365.764z"/>
		<path style="fill:#DB4242;" d="M99.126,366.669c-0.045,1.671,1.339,3.216,2.924,3.181c1.94-0.043,2.428-1.653,2.472-3.006
			c0.041-1.263-0.074-2.996-2.159-3.054C100.72,363.746,99.169,365.096,99.126,366.669z"/>
		<path style="fill:#FFDC48;" d="M152.02,355.199c0.085,1.665,0.758,2.892,2.41,2.865c1.229-0.02,2.126-0.955,2.063-2.302
			c-0.075-1.59-0.965-2.848-2.54-3.007C152.303,352.588,152.194,354.077,152.02,355.199z"/>
		<path style="fill:#DF88FF;" d="M134.641,361.844c-1.583,0.128-2.391,0.98-2.401,2.495c-0.01,1.418,0.968,2.006,2.199,2.112
			c1.249,0.108,3.041-1.602,2.869-2.698C137.069,362.241,135.834,362.025,134.641,361.844z"/>
		<path style="fill:#FFDC48;" d="M101.083,371.616c-2.532,0.453-4.208,1.932-3.69,3.294c0.424,1.118,1.301,1.965,2.659,1.597
			C101.679,376.067,102.117,373.989,101.083,371.616z"/>
		<path style="fill:#FFDC48;" d="M83.615,348.64c-0.816-1.548-1.988-1.527-3.134-1.312c-1.37,0.257-1.686,1.472-1.891,2.589
			c-0.154,0.839,0.465,1.419,1.195,1.768c1.196,0.571,1.601-0.525,2.199-1.13C82.562,349.969,83.058,349.301,83.615,348.64z"/>
		<path style="fill:#DB4242;" d="M140.066,369.04c-0.104-1.369-1.267-1.962-2.748-2.026c-1.411-0.061-1.484,1.045-1.464,2.062
			c0.032,1.581,1.073,2.344,2.47,2.441C139.684,371.612,140.098,370.613,140.066,369.04z"/>
		<path style="fill:#DF88FF;" d="M131.837,233.658c-1.069,0.317-1.548,1.067-1.377,2.059c0.212,1.23,0.992,2.09,2.321,2.088
			c0.936-0.002,1.735-0.64,1.612-1.555C134.208,234.882,133.169,234.087,131.837,233.658z"/>
		<path style="fill:#FFDC48;" d="M142.548,444.718c0.489-1.433,1.074-2.633,0.009-3.822c-0.484-0.54-1.095-0.599-1.663-0.354
			c-1.205,0.521-1.032,1.664-1.201,2.707C140.664,443.748,141.53,444.194,142.548,444.718z"/>
		<path style="fill:#FFDC48;" d="M157.706,257.553c-0.863,0.141-1.224,0.754-1.118,1.608c0.128,1.031,0.521,2.05,1.758,1.966
			c0.892-0.06,1.493-0.773,1.432-1.758C159.704,258.16,158.865,257.72,157.706,257.553z"/>
		<path style="fill:#DB4242;" d="M118.715,442.949c-1.1-1.357-2.352-1.809-3.429-0.718c-1.169,1.185-0.184,2.143,0.904,3.005
			C117.039,444.467,117.812,443.767,118.715,442.949z"/>
		<path style="fill:#DB4242;" d="M145.362,243.76c0.716-0.236,1.492-0.511,1.465-1.43c-0.026-0.88-0.61-1.325-1.511-1.26
			c-0.841,0.06-1.131,0.563-1.136,1.36C144.174,243.249,144.522,243.69,145.362,243.76z"/>
		<path style="fill:#42210B;" d="M131.392,404.218c-2.263,0.014-3.875-1.567-3.938-3.863c-0.065-2.361,1.746-3.869,4.647-3.867
			c1.592,0.001,2.984,1.595,3.002,3.435C135.127,402.479,133.637,404.204,131.392,404.218z"/>
		<path style="fill:#FFDC48;" d="M133.367,400.34c0.135-1.132-0.658-1.876-1.916-2.029c-1.353-0.164-2.217,0.73-2.306,1.955
			c-0.09,1.236,0.737,2.15,1.997,2.362C132.622,402.875,133.094,401.845,133.367,400.34z"/>
		<path style="fill:#42210B;" d="M114.829,352.845c1.568,1.95,3.329,3.332,5.33,5.04
			C117.195,357.731,114.422,355.141,114.829,352.845z"/>
		<path style="fill:#FFFFFF;" d="M110.826,310.838c0.818-0.846,1.401-1.866,2.476-2.394c0.956-0.47,1.907-0.628,2.821-0.013
			c1.019,0.686,1.194,1.724,0.953,2.853c-0.268,1.253-1.023,2.204-1.987,2.995c-1.508,1.238-3.278,1.923-5.151,2.387
			c-2.069,0.512-3.797-0.028-5.079-1.731c-0.755-1.002-0.898-2.13-0.063-3.177c1.318-1.651,3.042-1.862,4.953-1.268
			C110.102,310.599,110.454,310.717,110.826,310.838z"/>
		<path style="fill:#FFFFFF;" d="M109.073,315.084c2.618-0.274,5.106-0.834,6.571-3.36c0.359-0.618,0.563-1.284-0.058-1.868
			c-0.652-0.613-1.426-0.337-1.822,0.178c-1.43,1.863-3.04,2.296-5.288,1.45c-1.069-0.402-2.479,0.299-2.607,1.585
			c-0.131,1.317,1.034,1.894,2.292,2.01C108.463,315.108,108.769,315.084,109.073,315.084z"/>
		<path style="fill:#FFFFFF;" d="M123.88,292.063c1.586-0.111,3.023-0.292,3.569,1.298c0.543,1.581-0.545,2.631-1.63,3.492
			c-2.465,1.957-5.539,2.02-8.459,2.501c-0.799,0.132-1.177-0.447-1.283-1.271c-0.332-2.579,1.203-4.955,3.769-5.483
			C121.257,292.311,122.666,291.829,123.88,292.063z"/>
		<path style="fill:#FFFFFF;" d="M125.651,293.651c-4.413-0.54-7.005,0.607-7.713,3.501
			C120.673,296.337,123.665,296.578,125.651,293.651z"/>
		<path style="fill:#FFFFFF;" d="M98.066,292.866c2.663,0.151,4.909,1.022,6.228,3.531c0.491,0.934,0.639,1.957,0.064,2.822
			c-0.602,0.905-1.597,0.563-2.515,0.423c-2.255-0.342-4.254-1.133-5.757-2.93c-0.758-0.907-0.927-1.947-0.424-2.979
			C96.142,292.749,97.152,292.84,98.066,292.866z"/>
		<path style="fill:#FFFFFF;" d="M96.847,294.688c1.656,2.154,3.625,3.032,6.167,3.003
			C101.986,295.132,100.085,294.158,96.847,294.688z"/>
	</g>
	<g>
		<path style="fill:#42210B;" d="M436.863,136.314c-0.443-4.639-0.796-9.292-1.457-13.901c-0.216-1.509-0.149-2.366,1.05-3.476
			c2.16-2.002,1.857-4.689,1.153-7.286c-0.583-2.15-1.897-3.445-4.3-3.162c-0.496-3.5-0.96-6.78-1.416-9.998
			c1.382-0.464,3.076,0.746,3.71-0.835c0.63-1.571-1.395-1.244-2.18-1.981c1.853-1.53,3.314-3.401,2.842-5.587
			c-0.561-2.594-0.678-5.08-0.405-7.679c0.15-1.434-0.386-2.496-2.28-1.434c0.155-0.878,0.294-1.475,0.363-2.08
			c0.486-4.223-2.406-8.522-6.133-8.923c-1.97-0.212-3.977-0.204-5.952,0.145c-3.444,0.608-5.537-0.218-7.348-3.249
			c-1.092-1.828-1.947-3.808-2.795-5.768c-1.893-4.372-4.815-7.751-9.301-9.827c0.349-1.19,0.719-2.339,1.02-3.505
			c0.312-1.208,1.492-2.534,0.452-3.638c-1.063-1.127-2.444,0.034-3.633,0.329c-5.465,1.357-8.615-0.992-8.832-6.635
			c-0.033-0.858,0.392-1.861-0.536-2.543c-1.07-0.075-1.427,0.792-1.927,1.428c-1.572,1.996-3.282,3.848-5.475,5.177
			c-3.285,1.99-6.034,1.608-8.652-1.121c-0.499-0.52-0.765-1.38-1.829-1.333c-0.871,1.207-0.871,2.658-0.895,4.085
			c-0.023,1.395-0.528,2.195-2.01,2.585c-2.399,0.632-4.418,2.044-6.248,3.715c-0.475,0.434-0.781,1.034-1.686,0.943
			c-3.751-0.375-6.357,1.693-8.641,4.307c-3.307,3.785-3.472,8.557-3.88,13.168c-0.612,6.917-2.797,12.782-9.25,16.386
			c-2.206,1.232-3.582,3.23-4.297,5.719c-1.864,6.49,1.742,11.156,8.486,10.898c0.588-0.022,1.221-0.259,1.748,0.229
			c0.017,4.805,1.939,8.383,6.594,10.113c-1.162,4.839-0.01,7.275,4.415,9.153c-0.416,0.663-0.729,1.182-1.062,1.688
			c-2.856,4.331-6.174,8.22-9.862,11.919c-4.895,4.91-8.444,11.035-13.414,15.949c-0.897,0.887-1.563,2.101-2.057,3.281
			c-0.726,1.734-0.77,3.536,1.112,4.645c1.812,1.068,3.221,0.063,4.417-1.25c0.752-0.825,1.398-1.748,2.1-2.637
			c2.081,2.079,3.241,1.815,4.163-0.766c0.313-0.877,0.545-1.778,0.435-2.696c-0.169-1.408,0.488-2.113,1.631-2.9
			c5.415-3.727,10.706-7.574,15.044-12.657c2.543-2.979,5.19-5.915,8.131-9.26c0.146,6.511,3.344,11.72,4.256,17.741
			c-2.694-0.074-4.932,0.621-7.038,1.766c-6.589,3.583-11.992,8.425-15.87,14.9c-4.316,7.206-6.949,14.808-5.38,23.35
			c0.936,5.096,2.863,6.034,7.685,3.921c0.104-0.046,0.275,0.059,0.491,0.113c0.432,2.074,1.405,3.862,3.422,4.823
			c2.327,1.109,4.795,1.471,7.369,1.157c3.205-0.39,6.223-1.337,9.07-3.168c0.452,3.893,1.136,7.477,1.962,11.036
			c2.317,9.986,6.069,19.371,11.745,27.94c0.978,1.476,2.149,3.084,4.144,2.753c1.949-0.324,2.75-1.981,3.053-3.864
			c0.101-0.628,0.13-1.308,1.049-1.559c1.833-0.5,2.855-1.984,3.71-3.548c2.243-4.102,4.143-8.341,5.267-12.909
			c1.401-5.694,2.966-11.35,3.761-17.41c2.306,1.751,4.625,3.065,7.469,2.684c2.833-0.38,5.239-1.518,6.588-4.27
			c1.012,0.609,1.831,1.166,2.704,1.617c4.988,2.579,8.921,0.432,9.403-5.118c0.214-2.468-0.123-4.872-0.819-7.24
			c-4.311-14.672-12.975-26.464-24.716-35.907c-3.467-2.788-4.728-5.214-3.434-9.364c0.879-2.818,1.225-5.803,1.884-9.081
			c0.814,1.215,1.353,2.042,1.914,2.854c3.507,5.073,7.101,5.819,12.314,2.557c0.388-0.243,0.758-0.518,1.122-0.798
			c3.298-2.533,6.257-5.383,8.486-8.938c0.331-0.528,0.618-1.274,1.57-1.029c0.861,0.221,1.272,0.673,1.29,1.58
			c0.011,0.604,0.203,1.203,0.288,1.808c1.105,7.86,2.184,15.723,3.338,23.575c0.111,0.751,0.054,2.008,1.531,1.729
			c0.445-0.727,0.307-1.512,0.246-2.255C437.545,143.767,437.219,140.039,436.863,136.314z M427.162,112.853
			c-0.096,0.732-0.218,1.437-1.123,1.808c-3.23,1.324-6.421,2.743-9.762,4.185c-2.654-4.153-3.966-8.89-7.006-12.693
			c0.104-0.316,0.125-0.39,0.153-0.461c1.198-3.013,3.658-3.907,6.644-4.309c2.026-0.273,4.017-1.148,5.474-2.676
			c1.146-1.202,2.69-0.311,3.888-1.11c0.894,3.426,2.834,0.65,4.457,0.772c0.329,3.272,0.661,6.571,1.011,10.056
			C428.354,108.79,427.46,110.565,427.162,112.853z"/>
		<path style="fill:#FF8DFF;" d="M393.297,189.011c0.902,0.464,0.791,0.99,0.948,1.404c1.721,4.526,6.436,5.431,9.667,1.857
			c0.358-0.396,0.7-0.815,0.993-1.261c0.725-1.106,1.514-1.142,2.427-0.232c1.04,1.035,2.218,1.858,3.612,2.374
			c3.892,1.441,6.743,0.29,8.522-3.461c0.618-1.303,1.401-0.842,2.146-0.144c1.305,1.222,2.768,2.177,4.513,2.614
			c2.763,0.692,4.169-0.248,4.828-3.031c0.512-2.162,0.188-4.268-0.331-6.34c-1.655-6.609-4.881-12.537-8.477-18.218
			c-5.363-8.471-11.754-16.04-20.633-21.113c-0.853-0.487-0.931-1.124-0.802-1.921c0.639-3.918,1.066-7.887,1.987-11.738
			c1.009-4.222,1.097-7.963-1.47-11.88c-2.394-3.654-3.891-7.897-5.817-11.953c-1.913,0.898-2.681,2.515-3.55,4.023
			c-2.724,4.724-4.479,9.861-6.321,14.96c-0.279,0.771-0.351,1.821-1.407,1.85c-1.146,0.031-1.071-1.146-1.369-1.857
			c-2.009-4.806-4.663-9.202-8-13.268c-0.759,0.891-0.864,1.827-1.069,2.689c-0.595,2.512-1.212,4.957-2.618,7.222
			c-1.648,2.653-1.579,5.63-0.909,8.653c0.877,3.963,2.894,7.558,3.539,11.597c0.574,3.596,0.445,3.861-2.961,4.164
			c-2.255,0.201-4.268,1.116-6.199,2.247c-8.8,5.156-14.372,12.87-17.74,22.339c-1.494,4.201-1.632,8.555-1.277,12.918
			c0.297,3.647,2.016,4.395,5.25,2.555c0.822-0.468,1.462-1.416,2.652-1.153c0.115,0.186,0.298,0.36,0.337,0.563
			c0.961,4.974,2.369,6.108,7.29,6.271c4.515,0.15,8.349-1.426,11.878-4.094c2.026-1.532,2.451-1.313,2.851,1.119
			c0.471,2.864,2.656,4.887,5.611,5.204c2.316,0.249,4.365-0.516,6.311-1.66C389.615,191.196,391.512,190.068,393.297,189.011z"/>
		<path style="fill:#DB4242;" d="M407.709,104.325c0.9-0.267,1.383-0.72,1.529-1.307c0.522-2.109,2.085-2.603,3.951-2.769
			c0.677-0.06,1.337-0.297,2.007-0.441c3.801-0.819,6.537-4.227,10.618-4.378c0.086-0.003,0.163-0.242,0.276-0.421
			c-0.795-1.097-1.772-2.325-1.291-3.71c1.077-3.101,0.34-6.147,0.097-9.22c-0.041-0.518-0.214-1.078,0.405-1.433
			c1.272-0.212,1.486,1.5,2.586,1.483c0.984-1.148,0.299-3.046,1.875-4c1.117,1.228,0.674,3.056,2.231,4.419
			c-0.005-2.469,0.702-4.587-0.062-6.831c-1.044-3.069-3.207-4.6-6.416-4.31c-1.217,0.11-2.433,0.26-3.64,0.452
			c-4.585,0.729-7.266-0.431-9.527-4.476c-1.188-2.125-2.055-4.43-3.056-6.658c-1.518-3.38-3.85-5.993-7.468-7.915
			c-0.284,2.989-3.284,5.586-0.032,8.563c0.629,0.576,0.683,1.821,0.677,2.842c-0.01,1.822,0.114,3.648-0.439,5.494
			c3.23-1.328,5.807-0.182,7.143,3.073c1.809,4.409-0.048,10.057-4.257,12.333c-1.2,0.649-1.789,1.494-2.291,2.625
			c-1.926,4.336-4.776,7.798-9.299,9.648c-1.249,0.511-2.472,1.083-3.673,1.612c1.119,4.819,3.369,5.846,7.818,4.049
			C401.037,101.609,404.628,101.265,407.709,104.325z"/>
		<path style="fill:#ABEFFF;" d="M379.84,75.062c-0.502-0.038-0.744-0.004-0.94-0.083c-0.351-0.14-0.697-0.317-1.006-0.534
			c-3.001-2.097-6.295-3.465-9.955-3.749c-4.492-0.349-8.998-0.507-13.488-0.873c-2.56-0.209-3.115,0.152-2.821,2.696
			c0.565,4.898,2.309,9.295,5.693,12.981c2.02,2.201,4.452,3.44,7.459,3.438c4.785-0.004,9.204-1.128,11.996-5.327
			c1.316-1.979,2.488-2.495,4.682-1.706c6.721,2.416,12.64,0.155,16.144-6.025c1.092-1.925,2.03-3.924,2.727-6.033
			c0.811-2.453,1.045-4.921,0.216-7.412c-0.368-1.104-0.986-1.985-2.35-1.546c-6.233,2.007-12.061,4.779-16.93,9.265
			C379.926,71.388,379.233,72.948,379.84,75.062z"/>
		<path style="fill:#DB4242;" d="M350.19,75.484c-1.112,4.57-4.018,7.588-7.769,9.939c-0.84,0.527-1.698,1.05-2.447,1.693
			c-2.598,2.228-3.477,6.639-1.931,9.403c1.493,2.669,4.933,3.872,8.419,2.924c0.73-0.199,1.443-0.463,2.16-0.71
			c0.711-0.244,1.18-0.063,1.386,0.857c-2.007,1.223-2.183,2.987-1.323,5.062c1.645,3.971,4.615,5.497,9.289,4.633
			c0.703-0.13,1.448-0.465,1.723,0.443c0.33,1.089-0.66,1.197-1.355,1.425c-0.356,0.117-0.755,0.103-1.134,0.154
			c-1.695,0.227-3.157,0.689-3.193,2.825c-0.034,1.977,0.525,3.587,2.42,4.532c1.27,0.633,2.189,0.593,3.039-0.794
			c1.475-2.406,3.083-4.741,4.76-7.012c2.179-2.951,5.046-4.308,8.786-3.462c1.543,0.349,3.013-1.108,3.209-3.03
			c0.286-2.808-0.173-3.44-2.284-3.633c-5.683-0.52-10.644-2.645-14.486-6.971c-1.627-1.832-2.403-4.644-5.621-4.507
			c-0.307,0.013-0.659-0.357-0.945-0.601c-3.481-2.965-4.352-7.016-2.296-11.116C350.972,76.787,351,76.286,350.19,75.484z"/>
		<path style="fill:#DB4242;" d="M362.239,56.213c0.173,0.01,0.347,0.021,0.52,0.031c0.06,0.482,0.125,0.964,0.18,1.447
			c0.068,0.604,0.079,1.22,0.2,1.813c1.409,6.897,6.471,9.507,12.662,10.9c1.879,0.423,3.289,0.397,4.426-1.466
			c0.566-0.928,1.657-1.563,2.576-2.243c3.616-2.677,7.714-4.461,12.059-6.267c-0.535-0.283-0.847-0.486-1.186-0.621
			c-6.455-2.573-12.94-5.044-19.971-5.545c-1.417-0.101-2.233-0.668-2.098-2.294c0.124-1.488,0.026-2.996,0.026-4.62
			c-1.357,0.11-2.294,0.638-3.216,1.133c-2.94,1.577-5.231,3.948-9.096,4.292c-3.373,0.3-5.317,3.834-6.48,7.134
			c-0.893,2.533-0.944,5.217-1.297,7.912c1.098,0.094,2.073,0.197,3.051,0.259c5.105,0.327,5.105,0.324,6.111-4.857
			c0.029-0.15,0.073-0.297,0.106-0.446C361.288,60.588,361.763,58.4,362.239,56.213z"/>
		<path style="fill:#FFD5B8;" d="M381.52,86.05c-0.925,1.386-2.229,0.715-2.923,0.279c-1.378-0.866-2.103-0.278-3.144,0.502
			c-3.148,2.357-6.703,3.474-10.692,3.387c-2.289-0.05-4.298-0.904-6.518-1.859c2.421,5.772,9.428,10.168,16.117,10.503
			c2.397,0.12,4.723-0.304,7.069-0.523c9.061-0.848,16.893-3.718,20.435-13.171c0.218-0.583,0.39-1.12,1.081-1.345
			c4.325-1.412,5.918-4.525,4.685-9.102c-2.175,0.475-3.025,2.559-4.387,3.899c-0.987-0.559-0.951-1.297-0.665-1.92
			c0.909-1.987,2.815-2.766,4.731-3.457c-1.724-3.083-2.456-3.014-4.732-0.943c-1.871,1.703-3.069,3.743-4.367,5.798
			c-3.363,5.32-9.255,7.451-15.557,5.845c-1.065-0.271-2.275-1.456-3.444-0.209C379.39,85.178,381.126,84.77,381.52,86.05z"/>
		<path style="fill:#FFD5B8;" d="M373.013,109.443c-0.654-0.603-1.78-0.477-2.929-0.286c-2.914,0.484-4.636,2.531-6.147,4.778
			c-5.196,7.728-10.221,15.537-16.918,22.173c-4.542,4.5-7.727,10.234-12.335,14.751c-0.97,0.951-1.703,2.143-2.193,3.462
			c-0.375,1.008-0.62,2.013,0.464,2.637c1.014,0.583,1.772-0.246,2.331-0.914c0.878-1.049,1.598-2.232,2.37-3.369
			c0.378-0.557,0.62-1.257,1.33-1.264c1.453,0.324,0.415,2.148,1.712,2.482c0.442-0.493,0.656-1.064,0.631-1.695
			c-0.122-3.144,1.544-5.087,3.966-6.92c5.396-4.082,11.053-7.791,15.534-13.09C366.509,125.473,371.856,118.738,373.013,109.443z"
			/>
		<path style="fill:#FFD5B8;" d="M397.376,105.488c3.372,8.084,6.928,16.073,12.387,23.049c3.133,4.003,5.981,4.515,9.978,1.434
			c3.389-2.611,6.684-5.367,8.754-9.263c0.465-0.875,0.997-1.692,2.294-1.437c2.347,0.463,4.211-0.425,5.095-2.293
			c0.754-1.594,0.305-5.267-0.797-6.306c-0.489-0.461-1.055-0.573-1.69-0.135c0.618,1.893,1.213,3.808,0.25,5.751
			c-0.671,1.355-1.904,2.041-3.209,1.313c-1.36-0.758-1.329-2.129-0.579-3.453c1.067,0.286,0.591,1.676,1.598,1.837
			c0.904-0.541,0.879-1.409,0.843-2.242c-0.057-1.338-0.278-2.945-1.732-3.137c-1.559-0.206-1.763,1.543-1.866,2.632
			c-0.175,1.844-1.362,2.666-2.734,3.364c-3.265,1.66-6.593,3.197-9.84,4.89c-1.676,0.874-2.769,2.285-3.362,4.162
			c-0.53,1.677,0.757,2.564,1.463,3.82c-1.809,0.448-2.524-0.75-2.855-1.835c-1.105-3.622,0.804-6.119,3.797-8.243
			c-2.742-3.176-4.597-6.682-6.568-10.117c-0.763-1.329-1.636-2.586-2.785-3.624C403.774,103.81,399.676,103.719,397.376,105.488z"
			/>
		<path style="fill:#FFD5B8;" d="M389.33,194.231c-6.298,3.087-11.748,3.09-15.491-4.337c0,1.009-0.041,1.383,0.006,1.746
			c1.292,10.005,4.567,19.402,8.632,28.579c0.879,1.985,2.24,3.425,3.848,4.701c2.446,1.942,4.218,1.312,4.966-1.722
			c0.162-0.655,0.15-1.369,0.123-2.052c-0.146-3.739-0.212-7.487-0.514-11.214C390.485,204.794,389.883,199.67,389.33,194.231z"/>
		<path style="fill:#FFDC48;" d="M389.821,38.153c-7.123,7.424-9.979,8.129-16.223,4.019c-0.165,3.408-0.325,6.72-0.484,10.007
			c1.998,0.874,4.028,0.591,5.96,0.938c5.987,1.077,11.495,3.513,16.969,6.036c0.906,0.418,1.873,1.17,2.338-0.398
			c1.285-4.333,2.505-8.686,3.78-13.135C393.316,47.543,390.773,46.009,389.821,38.153z"/>
		<path style="fill:#FFD5B8;" d="M391.666,193.6c-0.88,0.774-0.453,1.536-0.392,2.269c0.644,7.753,1.899,15.452,2.008,23.251
			c0.011,0.767-0.08,1.57,0.879,1.886c0.843,0.278,1.454-0.078,2.026-0.68c0.898-0.946,1.775-1.907,2.283-3.125
			c2.952-7.072,4.259-14.571,6.117-22.887C399.463,198.959,395.367,197.467,391.666,193.6z"/>
		<path style="fill:#FFD5B8;" d="M374.992,108.881c3.506,4.533,6.661,8.932,8.968,14.417c2.337-6.626,4.584-12.674,8.742-17.908
			c-3.242-0.727-4.63-2.858-4.594-6.065c-3.513,1.18-7.035,0.707-10.467,1.641C378.186,103.938,378.997,107.005,374.992,108.881z"/>
		<path style="fill:#FFDC48;" d="M430.566,86.542c-1.86-0.053-4.311,2.35-4.38,4.295c-0.075,2.126,1.677,3.952,3.855,4.016
			c2.304,0.067,4.505-1.93,4.633-4.205C434.788,88.638,432.754,86.605,430.566,86.542z"/>
		<path style="fill:#FFD5B8;" d="M358.045,87.834c-3.051-2.541-4.837-5.655-6.552-9.235c-1.182,3.521-0.408,6.221,1.804,8.527
			C354.482,88.361,355.971,88.673,358.045,87.834z"/>
		<path style="fill:#FFD5B8;" d="M362.27,62.752c-0.124,1.999-1.133,3.74-1.515,5.714c1.886,0,3.655,0,5.84,0
			C364.669,66.665,363.314,64.889,362.27,62.752z"/>
		<path style="fill:#FF8DFF;" d="M429.683,81.901c-0.48,2.169-1.835,1.987-3.237,1.57c-0.296,1.171,0.177,2.001,0.56,2.981
			c2.25-1.608,4.526-1.871,6.917-0.636c0.283-0.793,0.249-1.538,0.111-2.462C432.037,84.975,430.884,83.739,429.683,81.901z"/>
		<path style="fill:#FFFFFF;" d="M367.323,163.048c-0.638-3.099,4.173-10.949,7.387-11.863
			C371.787,155.187,369.367,158.998,367.323,163.048z"/>
		<path style="fill:#FFFFFF;" d="M369.093,153.797c0.801-3.1,3.228-4.919,5.397-6.897c0.609-0.555,1.567-0.653,2.183,0.682
			C373.796,149.185,371.929,152.023,369.093,153.797z"/>
		<path style="fill:#FFFFFF;" d="M383.436,163.28c-1.274-0.044-2.062-0.62-2.116-1.915c-0.052-1.256,0.606-2.1,1.848-2.149
			c1.29-0.051,2.23,0.667,2.249,2.036C385.434,162.489,384.654,163.17,383.436,163.28z"/>
		<path style="fill:#FFFFFF;" d="M381.145,180.113c-0.022,0.993-0.528,1.542-1.541,1.575c-1.245,0.04-2.101-0.471-2.157-1.8
			c-0.045-1.065,0.533-1.783,1.62-1.819C380.391,178.025,380.881,178.978,381.145,180.113z"/>
		<path style="fill:#FFFFFF;" d="M396.039,145.687c2.735-0.023,6.099,2.439,7.068,5.319
			C400.717,148.691,398.091,147.621,396.039,145.687z"/>
		<path style="fill:#FFFFFF;" d="M411.543,178.709c0.964,0.095,1.513,0.618,1.472,1.617c-0.038,0.912-0.605,1.335-1.485,1.346
			c-0.985,0.013-1.611-0.469-1.61-1.469C409.921,179.207,410.549,178.734,411.543,178.709z"/>
		<path style="fill:#FFFFFF;" d="M395.828,134.224c-0.898-0.092-1.438-0.615-1.482-1.47c-0.048-0.946,0.592-1.362,1.474-1.35
			c0.879,0.012,1.492,0.449,1.47,1.385C397.27,133.682,396.716,134.157,395.828,134.224z"/>
		<path style="fill:#FFFFFF;" d="M413.432,168.447c0.059,0.882-0.349,1.431-1.135,1.455c-0.835,0.025-1.451-0.466-1.542-1.351
			c-0.091-0.882,0.332-1.531,1.248-1.534C412.891,167.014,413.285,167.693,413.432,168.447z"/>
		<path style="fill:#FFFFFF;" d="M417.211,177.583c-0.071,0.851-0.455,1.485-1.366,1.478c-0.758-0.005-1.321-0.496-1.319-1.271
			c0.003-0.934,0.539-1.615,1.523-1.602C416.849,176.198,417.191,176.808,417.211,177.583z"/>
		<path style="fill:#FFFFFF;" d="M376.238,132.46c0.84,0.73,2.644-0.269,2.571,1.664c-0.038,0.996-1.019,1.293-1.901,1.01
			C375.565,134.703,375.543,133.764,376.238,132.46z"/>
		<path style="fill:#FFFFFF;" d="M358.523,166.739c0.899,0.007,1.486,0.455,1.531,1.344c0.045,0.87-0.448,1.463-1.351,1.52
			c-0.937,0.058-1.397-0.576-1.508-1.394C357.068,167.274,357.624,166.818,358.523,166.739z"/>
		<path style="fill:#FFFFFF;" d="M359.729,161.401c-0.08,0.87-0.525,1.417-1.449,1.406c-0.951-0.011-1.349-0.602-1.334-1.493
			c0.015-0.916,0.502-1.429,1.424-1.412C359.306,159.92,359.719,160.483,359.729,161.401z"/>
		<path style="fill:#FFFFFF;" d="M398.777,149.378c1.334,1.146,2.739,2.226,3.429,3.974c-0.153,0.143-0.306,0.285-0.46,0.428
			c-1.177-1.293-2.355-2.585-3.532-3.878C398.402,149.727,398.589,149.552,398.777,149.378z"/>
		<path style="fill:#FFFFFF;" d="M390.785,69.453c1.616-0.033,2.524,1.068,1.832,2.538c-1.215,2.58-3.361,4.316-5.877,5.565
			c-0.626,0.311-1.419,0.196-1.938-0.321c-0.487-0.487-0.242-1.123-0.046-1.721C385.692,72.657,388.822,69.493,390.785,69.453z"/>
		<path style="fill:#FFFFFF;" d="M386.863,75.509c2.017-0.892,3.58-2.244,4.544-4.728C389.056,71.93,387.845,73.59,386.863,75.509z"
			/>
		<path style="fill:#FFFFFF;" d="M367.206,81.571c-2.211-0.104-3.993-0.492-5.463-1.719c-0.643-0.536-1.255-1.213-0.937-2.16
			c0.268-0.797,0.996-1.166,1.765-1.281c1.67-0.248,3.379-0.315,5.01,0.111c1.624,0.425,3.261,1.451,3.019,3.227
			C370.349,81.596,368.353,81.422,367.206,81.571z"/>
		<path style="fill:#FFFFFF;" d="M362.291,77.908c2.232,2.189,4.271,2.532,6.566,1.248
			C367.071,76.995,364.837,77.532,362.291,77.908z"/>
		<path style="fill:#42210B;" d="M385.649,88.604c-0.254-1.014-1.153-1.836-0.173-3.158c1.746,1.057,3.124,2.425,4.476,4.57
			c-3.471-0.435-5.498,2.041-8.267,2.58c-1.583,0.308-3.018,0.294-4.435-0.387c-0.733-0.352-1.273-0.961-0.937-1.839
			c0.342-0.893,1.054-0.586,1.741-0.403C380.714,90.675,383.165,90.1,385.649,88.604z"/>
		<path style="fill:#FFFFFF;" d="M428.919,93.013c-1.025-0.104-1.396-0.856-1.465-1.703c-0.051-0.628,0.312-1.242,1.083-1.084
			c0.88,0.181,1.829,0.487,1.778,1.649C430.28,92.665,429.695,93.013,428.919,93.013z"/>
	</g>
	<g>
		<path style="fill:#42210B;" d="M152.255,118.283c1.985-2.38,4.06-4.192,6.149-5.988c0.732-0.629,1.21-1.158,0.713-2.311
			c-1.015-2.352-1.466-4.406,1.523-6.207c1.482-0.893,2.523-2.533,4.542-2.514c0.76,0.007,1.562-0.005,2.177,0.549
			c2.315,2.087,2.462,4.859,2.11,7.626c-0.274,2.15-1.32,3.933-3.757,4.139c-1.665,5.896-3.297,11.691-8.42,15.606
			c-5.002,3.823-8.553,3.43-12.644-1.389c-0.283-0.333-0.602-0.635-1.141-1.199c-0.082,7.984-2.165,15.369-3.176,22.957
			c8.619,0.168,13.592,6.015,18.318,12.134c2.102,2.723,3.798,5.736,4.866,9.037c1.204,3.721,0.672,4.388-3.222,4.078
			c0.252,2.204,0.686,4.37,0.571,6.586c-0.085,1.634-0.41,3.191-1.129,4.643c-1.656,3.344-3.34,3.756-6.926,1.767
			c-2.108,12.988-4.73,16.76-11.587,16.471c-0.796,1.808-1.348,3.842-3.157,5.089c-1.938,1.337-3.875,1.071-5.89-0.057
			c-2.484,5.397-4.059,10.971-5.798,16.486c-0.114,0.362-0.177,0.741-0.29,1.104c-1.792,5.755-2.6,6.279-8.345,4.893
			c-2.959-0.714-6.09-0.742-8.871-2.163c-0.725-0.37-1.733-0.591-1.704-1.63c0.026-0.939,0.983-1.028,1.651-1.364
			c0.954-0.479,1.829-1.176,2.828-1.496c3.539-1.133,3.323-2.659,1.829-5.536c-3.114-5.999-4.339-12.661-6.403-19.029
			c-0.163-0.503-0.345-1-0.514-1.487c-3.874,0.534-4.647-0.055-6.295-4.732c-4.949,1.837-6.894-0.068-7.977-7.867
			c-0.984,0.749-1.901,1.545-2.911,2.197c-1.864,1.203-3.802,2.051-5.938,0.539c-1.919-1.359-2.987-4.281-2.428-6.756
			c0.41-1.815,1.325-3.399,2.533-5.114c-1.238-0.221-2.604-0.148-3.086-1.446c-0.484-1.303-0.051-2.576,0.491-3.769
			c1.677-3.695,4.749-6.109,7.955-8.472c-1.385-1.986-0.502-3.729,0.764-5.196c4.871-5.642,10.806-9.372,18.468-9.798
			c0.299-0.017,0.597-0.053,1.084-0.097c-0.587-6.307-1.767-12.338-5.489-17.779c-0.934,0.596-1.218,1.753-1.757,2.692
			c-2.54,4.424-5.291,8.591-10.294,10.682c-4.44,1.855-7.494,0.905-9.272-3.531c-1.526-3.808-2.86-7.726-3.413-11.834
			c-0.139-1.03-0.488-1.53-1.574-1.864c-2.658-0.818-4.514-3.646-4.265-6.101c0.344-3.38,3.17-6.64,6.049-6.976
			c4.578-0.534,7.482,3.046,5.97,7.405c-0.229,0.659-0.549,1.211-0.058,1.894c1.506,2.093,2.976,4.212,4.573,6.481
			c2.57-3.71,4.892-7.254,6.727-11.3c-3.764-0.925-6.269-2.937-6.423-7.173c-3.804-1.16-7.867-2.063-10.397-5.594
			c-2.47-3.446-3.986-7.108-1.581-11.263c-0.718-0.718-1.656-0.899-2.508-1.166c-6.026-1.891-9.533-11.701-3.012-16.814
			c2.297-1.801,4.742-3.357,7.14-4.991c2.535-1.728,3.603-4.258,4.352-7.034c0.194-0.718,0.064-1.328-0.519-1.865
			c-0.954-0.879-1.448-1.983-1.22-3.295c0.191-1.1-0.713-1.435-1.295-1.971c-2.169-1.996-3.191-4.401-2.906-7.378
			c0.197-2.056,1.286-3.239,3.266-3.512c1.125-0.155,2.295-0.13,3.43-0.029c1.569,0.139,2.924,0.727,4.579-0.572
			c1.389-1.091,2.869,0.686,4.179,1.613c0.59-0.933,1.339-1.674,2.345-2.115c-2.521-4.582-2.772-7.557-0.8-9.252
			c1.649-1.417,4.481-0.83,7.915,1.64c2.257-2.504,3.535-2.224,7.442,1.697c0.768-1.113,0.919-2.54,1.879-3.514
			c1.072-1.088,2.24-1.22,3.612-0.257c1.098-2.121,2.244-4.098,4.045-5.549c1.537-1.239,3.203-2.186,5.247-1.198
			c1.986,0.96,2.421,2.769,2.567,4.768c0.126,1.719-0.796,3.329-0.455,5.119c0.965-1.62,1.577-3.389,2.896-4.709
			c1.002-1.003,2.028-1.988,3.541-0.757c0.206,0.167,0.564,0.179,0.857,0.204c3.583,0.301,4.802,1.5,5.035,5.057
			c0.155,2.353-0.46,4.56-1.564,6.607c-0.52,0.964-0.751,1.796,0.094,2.721c0.649-0.339,1.297-0.739,1.991-1.026
			c0.732-0.302,1.699-0.464,2.116,0.258c1.772,3.069,5.454,5.58,3.135,9.944c-0.204,0.383-0.101,0.715,0.11,1.068
			c2.14,3.58,4.386,7.002,8.653,8.458c3.265,1.114,6.349,2.653,9.139,4.716c6.555,4.846,7.148,11.666,1.334,17.391
			c-1.87,1.842-2.981,3.577-3.144,6.398c-0.291,5.055-2.65,6.959-7.951,7.285c-1.447,0.089-2.277,0.351-2.781,1.902
			c-0.964,2.963-3.749,3.271-6.614,3.785C146.889,111.432,149.513,114.782,152.255,118.283z"/>
		<path style="fill:#754C24;" d="M143.196,106.692c0.762-0.699,1.551-0.59,2.304-0.685c1.624-0.205,3.109-0.967,3.603-2.468
			c0.768-2.332,2.46-2.754,4.508-3.109c4.1-0.71,6.091-2.986,5.69-6.948c-0.263-2.594,0.548-4.256,2.673-5.526
			c0.579-0.346,1.055-0.881,1.533-1.373c4.442-4.576,3.993-9.732-1.16-13.467c-2.621-1.9-5.516-3.278-8.55-4.342
			c-4.033-1.415-7.012-3.948-8.814-7.845c-0.28-0.606-0.648-1.173-0.969-1.748c-0.924,0.204-1.33,0.895-1.814,1.458
			c-0.299,0.347,1.023,9.287,1.373,9.619c4.218,3.996,3.882,11.161-2.514,14.77c-0.833,0.47-1.2,0.891-1.431,1.784
			c-1.249,4.838-4.007,8.508-8.583,10.704c-1.358,0.652-2.701,1.334-3.994,1.974c0.228,4.517,2.924,6.815,8.473,4.008
			c2.326-1.177,4.478-0.943,6.154,1.079C142.16,105.157,142.563,105.803,143.196,106.692z"/>
		<path style="fill:#754C24;" d="M85.383,63.996c-0.24,5.575-3.583,8.527-7.753,10.909c-1.253,0.715-2.432,1.609-3.51,2.572
			c-4.313,3.854-3.75,9.878,1.211,12.938c1.163,0.717,2.458,1.228,3.71,1.794c1.448,0.653,1.811,1.602,0.799,2.885
			c-1.779,2.256-1.424,4.52-0.153,6.841c1.954,3.57,5.06,5.667,8.835,6.847c1.896,0.593,3.377,1.124,3.573,3.661
			c0.157,2.026,2.113,3,4.065,3.574c1.878,0.552,2.279-1.032,3.16-1.982c1.144-1.232,2.265-2.502,3.532-3.598
			c1.637-1.417,3.37-2.513,5.818-1.975c1.329,0.292,2.762-0.517,3.765-1.382c1.384-1.193,0.851-2.957,0.662-4.533
			c-0.186-1.551-1.463-1.016-2.342-1.143c-6.686-0.967-11.927-4.066-15.22-10.138c-0.344-0.634-0.393-1.367-1.606-1.557
			c-4.88-0.765-8.179-7.15-6.164-11.627c0.299-0.666,0.454-1.309,0.342-1.99c-0.589-3.554-0.476-7.114-0.067-10.714
			C87.24,64.961,86.505,64.579,85.383,63.996z"/>
		<path style="fill:#FF8A8A;" d="M162.564,173.706c0.034-0.673,0.137-0.996,0.052-1.257c-3.078-9.397-8.824-16.473-17.987-20.538
			c-1.109-0.492-2.287-0.72-3.64-0.288c0.352,0.864,0.667,1.627,0.974,2.392c1.835,4.568,3.026,9.288,3.198,14.224
			c0.276,7.909-1.976,15.255-5.236,22.323c-2.548,5.525-4.932,11.106-6.984,16.812c2.585,1.435,4.168,1.09,5.714-1.207
			c0.381-0.566,0.76-1.168,0.969-1.809c0.365-1.118,0.988-1.617,2.2-1.434c2.153,0.326,3.646-0.816,4.901-2.377
			c2.944-3.66,4.094-7.954,4.42-12.542c0.062-0.867-0.354-1.978,0.752-2.435c0.941-0.388,1.525,0.491,2.184,0.968
			c1.825,1.321,2.739,1.142,3.755-0.875c0.337-0.669,0.511-1.43,0.692-2.165c0.719-2.916,0.185-5.767-0.491-8.607
			c-0.187-0.786-0.863-1.62-0.138-2.368c0.825-0.851,1.513,0.125,2.25,0.373C160.861,173.138,161.575,173.375,162.564,173.706z"/>
		<path style="fill:#FFD5B8;" d="M141.039,156.269c-4.021,2.538-7.835,5.014-11.259,8.066c-2.812,2.506-5,5.32-5.172,9.289
			c-0.033,0.757-0.193,1.512-0.328,2.262c-1.276,7.102-2.403,14.227-3.307,21.49c4.479,0.93,7.699,3.805,11.038,6.498
			c1.045-2.438,2.038-4.666,2.961-6.924c2.476-6.058,5.678-11.82,7.262-18.244C144.089,171.175,143.813,163.798,141.039,156.269z"/>
		<path style="fill:#754C24;" d="M105.519,65.531c0.249-0.866,0.367-1.471,0.595-2.031c0.524-1.281,0.445-3.4,2.04-3.446
			c1.423-0.041,0.835,1.963,1.223,3.031c0.026,0.071,0.024,0.156,0.061,0.22c1.006,1.714,2.656,2.22,4.477,2.232
			c1.234,0.008,1.311-1.012,1.431-1.956c0.098-0.764-0.496-1.898,0.633-2.178c1.12-0.278,1.13,1.028,1.616,1.631
			c0.808,1.002,1.798,1.371,3.038,1.135c1.198-0.228,1.122-1.306,1.401-2.136c0.204-0.605-0.156-1.443,1.061-1.867
			c1.597,3.133,4.605,2.649,7.448,2.419c1.286-0.104,2.568-0.304,3.867-0.306c1.787-0.004,2.807,0.988,3.374,2.575
			c0.586,1.643,1.167,3.288,1.759,4.957c0.739,0.002,1.38-0.002,1.919-0.526c-0.012-3.518-1.165-6.71-2.519-9.852
			c-2.436-5.653-7.292-8.421-12.792-9.852c-7.187-1.869-14.335-1.694-21.462,1.207c-9.426,3.837-17.329,12.366-14.87,25.485
			c0.807-0.086,1.614-0.172,2.629-0.28c-0.646-2.921-0.779-5.717-0.327-8.526c0.321-1.994,1.451-2.856,3.38-2.243
			c1.175,0.373,1.776,0.115,2.359-0.944c1.209-2.198,3.329-3.552,5.132-5.193c0.549-0.499,1.186-0.679,2.007,0.056
			C103.278,61.252,103.477,63.344,105.519,65.531z"/>
		<path style="fill:#FFD5B8;" d="M105.969,156.413c-2.604,3.822-3.588,8.46-3.245,14.397c0.488,8.431,2.5,16.576,4.471,24.737
			c0.32,1.327,1.099,1.625,2.273,1.646c3.009,0.053,5.903-0.678,8.83-1.202c1.092-0.195,1.178-0.982,1.286-1.855
			c0.619-4.996,1.645-9.921,2.643-14.85c0.509-2.515,1.219-5,1.363-7.563C115.629,168.904,110.57,162.938,105.969,156.413z"/>
		<path style="fill:#FF8A8A;" d="M101.52,191.49c0.455,1.571,0.826,3.173,1.396,4.7c0.339,0.909,0.92,1.877,2.201,1.453
			c1.392-0.461,0.69-1.554,0.472-2.298c-1.846-6.296-3.375-12.665-4.264-19.165c-0.899-6.573-1.006-13.083,1.982-19.291
			c1.135-2.358,2.965-4.183,4.61-6.284c-5.839-0.26-17.097,7.174-17.718,11.568c0.723,0.66,1.843-0.116,2.538,0.687
			c0.256,1.041-0.465,1.272-1.208,1.582c-3.194,1.334-5.655,3.602-7.714,6.313c-0.995,1.311-1.778,2.767-1.876,4.411
			c2.039,1.148,3.759-1.2,5.713-0.406c-0.156,1.326-1.098,1.853-1.724,2.577c-1.534,1.771-2.703,3.708-2.96,6.078
			c-0.19,1.755,0.134,3.392,1.719,4.437c1.523,1.004,2.792-0.005,3.984-0.779c1.736-1.128,3.292-2.492,4.562-4.145
			c0.399-0.52,0.831-1.01,1.506-0.609c0.559,0.332,0.383,0.931,0.207,1.445c-0.536,1.562-0.39,3.176-0.333,4.772
			c0.067,1.904,0.546,3.737,2.393,4.643c1.763,0.865,2.753-0.687,3.889-1.634C100.941,191.505,101.039,191.528,101.52,191.49z"/>
		<path style="fill:#FFD5B8;" d="M137.019,73.546c-1.692,4.311-4.288,7.893-8.628,9.656c-4.148,1.685-8.583,1.352-12.958,0.874
			c-0.377,1.811,1.715,1.708,2.034,3.356c-2.287,0.259-3.428-1.016-4.301-2.639c-7.1,1.228-13.567,0.391-19.112-5.349
			c0.555,2.34,1,4.324,1.498,6.296c1.582,6.26,5.388,10.495,11.554,12.511c8.874,2.901,17.164,1.321,24.97-3.448
			c1.906-1.164,3.584-2.73,4.469-4.813c2.073-4.873,2.718-9.959,1.856-15.22C138.284,74.046,138.025,73.653,137.019,73.546z"/>
		<path style="fill:#FFDC48;" d="M120.395,83.042c2.999-0.358,6.166-0.079,8.806-1.956c5.214-3.708,6.898-9.074,6.955-15.166
			c0.018-1.877-0.902-2.56-2.755-2.343c-3.964,0.462-7.417,2.233-10.837,4.091c-2.984,1.622-5.291,3.866-6.301,7.231
			c-0.572,1.907-1.578,1.41-2.397,0.277c-4.581-6.339-11.949-6.423-18.51-8.308c-0.692-0.199-1.311-0.02-1.604,0.852
			c-1.4,4.166,0.624,10.925,4.315,13.155c5.046,3.049,10.438,4.16,16.153,1.795c0.753-0.311,1.459-0.762,2.369-0.229
			C117.749,83.121,119.08,83.091,120.395,83.042z"/>
		<path style="fill:#FF4A90;" d="M123.798,135.46c0.793,0.423,1.037,1.078,1.383,1.665c1.42,2.412,3.531,3.737,5.518,3.244
			c2.4-0.595,3.331-2.452,3.59-4.743c0.061-0.544,0.109-1.12,0.815-1.177c0.549-0.044,0.718,0.378,0.93,0.821
			c0.579,1.207,1.74,1.919,2.923,1.799c1.436-0.145,1.802-1.466,2.215-2.813c1.054-3.432,0.464-6.753,0.029-10.169
			c-0.353-2.773-2.247-3.435-4.348-3.816c-2.058-0.372-4.159-0.024-5.98,1.056c-3.937,2.334-7.246,5.358-9.497,9.402
			c-1.544,2.774-1.756,2.828-3.811,0.292c-2.026-2.501-4.067-4.979-6.991-6.51c-2.784-1.458-4.145-0.846-4.742,2.146
			c-0.784,3.931,3.872,11.452,7.413,12.39c2.052,0.544,3.801,0.411,4.625-1.962c0.17-0.488,0.37-1.056,1.231-0.785
			c0.605,0.409,0.195,1.239,0.523,1.82c0.398,0.703,0.448,1.79,1.481,1.842c1.152,0.058,1.111-1.105,1.399-1.818
			C122.862,137.253,122.747,136.157,123.798,135.46z"/>
		<path style="fill:#FFD5B8;" d="M80.117,115.242c-3.577,0.589-5.852,3.567-5.213,6.727c0.353,1.748,1.33,3.236,3.287,3.299
			c1.637,0.053,1.889,0.913,2.238,2.221c1.08,4.045,2.163,8.105,3.587,12.036c1.407,3.885,3.636,4.635,7.429,3.017
			c1.501-0.641,2.832-1.568,3.883-2.778c3.16-3.639,6.121-7.426,7.469-12.178c0.643-2.266,1.799-4.162,3.938-5.561
			c-1.579-1.732-0.658-3.466-0.066-5.35c-2.06-0.115-3.326-1.255-4.059-3.298c-0.796,1.008-1.473,1.739-2.008,2.562
			c-2.829,4.351-5.547,8.776-8.467,13.064c-1.137,1.67-1.426,2.981-0.094,4.673c0.798,1.013,1.8,2.239,0.911,3.942
			c-0.416-0.278-0.727-0.389-0.889-0.609c-3.074-4.158-5.816-8.534-8.455-12.976c-0.682-1.147-0.596-2.102,0.166-3.347
			c0.738-1.206,0.676-2.828-0.454-4.045c-0.804-0.866-1.722-0.442-2.51,0.03c-1.297,0.777-2.5,1.674-2.063,3.461
			c1.644,0.428,1.72-1.779,3.329-1.6c0.27,1.566-0.688,2.41-1.857,2.938c-0.925,0.418-2.056,0.445-2.594-0.69
			C76.386,118.16,78.578,116.955,80.117,115.242z"/>
		<path style="fill:#FF4A90;" d="M121,199.064c-0.229,0.435-0.454,0.685-0.491,0.96c-0.973,7.264-2.577,14.416-3.79,21.636
			c-0.36,2.142-1.287,3.688-3.289,4.571c-1.03,0.454-2.127,0.811-3.115,1.87c2.963,0.654,5.763,1.215,8.532,1.899
			c3.695,0.912,3.952,0.928,5.229-2.65c2.381-6.675,4.605-13.406,6.874-20.121c0.204-0.605,0.658-1.273-0.131-1.855
			C127.705,203.074,124.75,200.52,121,199.064z"/>
		<path style="fill:#FFD5B8;" d="M151.264,125.856c-1.093-1.089-1.134-2.306-0.622-3.428c1.052-2.307,0.347-4.016-1.486-5.492
			c-0.291-0.235-0.492-0.582-0.732-0.881c-2.654-3.307-5.308-6.615-8.302-10.347c0.282,2.915-0.56,4.931-2.44,6.559
			c1.254,1.282,0.468,3.105,1.437,4.292c0.973,1.191,2.051,2.344,2.589,3.756c1.101,2.894,3.227,4.977,5.256,7.137
			c2.809,2.989,5.55,3.303,9,1.067c5.33-3.455,7.172-8.854,8.096-14.748c0.126-0.802-0.316-1.189-0.862-1.686
			c-0.924-0.84-1.718-1.846-1.015-3.245c1.287,0.085,0.951,1.836,2.186,1.797c0.247-0.734,0.026-1.38-0.255-2.016
			c-0.62-1.402-1.329-3.369-3.006-2.892c-2.18,0.619-0.891,2.595-0.418,3.875c0.574,1.551,0.165,2.397-1.015,3.461
			c-3.73,3.362-7.792,6.585-7.849,12.32C151.825,125.481,151.61,125.574,151.264,125.856z"/>
		<path style="fill:#FF4A90;" d="M110.48,150.593c-0.7,0.847-1.211,1.63-1.88,2.241c-1.318,1.204-1.427,2.31-0.195,3.683
			c1.937,2.159,3.669,4.507,5.659,6.615c2.514,2.663,5.339,4.966,8.771,6.461c4.155-7.193,11.036-10.899,17.855-14.887
			c-0.894-1.151-0.514-3.273-2.655-3.245c-3.691,0.047-7.322,0.664-10.607,2.39c-2.039,1.071-3.994,2.436-4.638,4.925
			c-0.277,1.071-0.671,2.221-2.012,2.031c-1.366-0.194-1.492-1.482-1.35-2.539c0.315-2.333-1.03-3.723-2.602-4.997
			C115.008,151.8,112.859,151.063,110.48,150.593z"/>
		<path style="fill:#FF8A8A;" d="M138.064,105.262c-2.071,0.678-3.543,1.932-4.733,3.332c-3.616,4.255-7.115,8.612-10.565,13.003
			c-1.121,1.428-1.963,1.883-3.048,0.067c-0.509-0.852-1.131-1.635-1.679-2.464c-2.467-3.725-6.077-5.902-10.128-7.476
			c-1.15-0.447-2.331-0.271-3.313,0.344c-0.631,0.396-0.454,1.279-0.159,1.904c0.541,1.146,1.621,1.23,2.737,1.257
			c0.855,0.021,1.788-0.349,2.512,0.209c0.213,1.127-0.735,1.192-1.167,1.65c-1.918,2.037-1.324,4.563,1.326,5.438
			c1.466,0.484,2.778,1.244,4.055,2.097c2.312,1.546,3.819,3.894,5.684,5.766c3.579-5.38,7.546-10.054,14.113-11.806
			c2.775-0.741,3.61-3.002,2.49-5.676c-0.397-0.95-0.156-1.593,0.571-2.209C138.348,109.355,138.605,107.628,138.064,105.262z"/>
		<path style="fill:#FFD5B8;" d="M132.455,106.603c-5.109-0.38-5.824-1.061-7.265-6.46c-3.318,1.101-6.754,1.603-10.227,1.802
			c0.364,5.766,0.242,6.046-3.447,7.994c3.103,3.617,6.815,6.67,9.321,10.815C124.777,115.956,128.491,111.432,132.455,106.603z"/>
		<path style="fill:#FFD5B8;" d="M121.648,151.283c5.126-3.843,10.444-6.462,16.863-4.755c0.336-1.463,0.61-2.805,0.958-4.127
			c0.364-1.381,0.846-2.736,0.765-4.34c-1.803,0.375-3.475,0.069-4.988-0.784c-2.967,5.807-6.48,6.28-11.432,1.742
			c-1.523,3.568-3.142,3.717-5.711,0.42c-2.439,2.489-5.005,1.18-7.698,0.019c0.324,2.367,0.62,4.535,0.91,6.652
			C115.904,145.555,119.115,147.603,121.648,151.283z"/>
		<path style="fill:#FF4A90;" d="M113.946,36.167c-1.778,2.218-2.594,4.51-2.034,7.09c0.596,2.743,2.232,3.837,5.073,3.908
			c2.207,0.056,4.433-0.202,6.616,0.415c0.55,0.156,1.16,0.204,1.707-0.311c1.867-1.755,2.188-5.815,0.431-7.743
			c-0.746-0.819-0.765-1.523-0.474-2.487c0.35-1.16,0.728-2.327,0.664-3.587c-0.072-1.416-0.153-2.857-1.667-3.478
			c-1.563-0.642-2.585,0.492-3.554,1.452c-1.26,1.249-2.21,2.737-2.923,4.356C116.41,38.904,116.429,38.913,113.946,36.167z"/>
		<path style="fill:#FF4A90;" d="M88.41,48.735c-1.548-0.78-3.229-1.243-4.967-1.377c-3.209-0.248-4.565,1.312-3.89,4.458
			c0.343,1.602,1.204,2.948,2.399,4.076c1.138,1.075,2.927,1.773,1.846,3.998c-0.281,0.578,0.544,1.36,1.161,1.836
			c1.083,0.834,2.268,1.476,3.786,1.896c1.605-3.946,4.243-7.15,7.314-10.008c-1.204-1.735-2.263-3.399-3.463-4.953
			C91.053,46.661,89.883,46.701,88.41,48.735z"/>
		<path style="fill:#FF4A90;" d="M97.578,52.632c4.315-3.155,9.244-4.38,14.32-5.414c-2.304-3.341-1.965-8.117-6.373-9.6
			c-1.3,0.279-0.912,1.774-1.795,2.232c-1.135,0.033-1.643-0.853-2.309-1.428c-1.023-0.883-2.158-1.375-3.497-1.519
			c-1.648-0.177-2.441,0.52-2.486,2.163c-0.056,2.001,0.68,3.741,1.806,5.316c0.815,1.14,0.934,1.844-0.682,2.275
			c-1.613,0.43-2.072,1.814-1.128,3.287C96.004,50.834,96.754,51.611,97.578,52.632z"/>
		<path style="fill:#FF4A90;" d="M119.118,197.456c-3.771,0.664-7.188,1.672-10.995,1.289c1.896,7.012,4.029,13.508,7.147,19.704
			C116.911,211.527,118.44,204.661,119.118,197.456z"/>
		<path style="fill:#FF4A90;" d="M132.176,34.363c-1.509,1.511-2.781,3.238-2.992,5.289c-0.309,3.001-0.214,6.039-2.358,8.668
			c3.008,0.767,5.297,2.299,7.8,3.359c0.784-1.05,1.528-2.008,1.726-3.405c-1.939-0.205-1.781-1.136-0.845-2.431
			c0.529-0.732,0.893-1.591,1.282-2.416c0.863-1.827,1.261-3.754,1.023-5.772c-0.267-2.273-1.285-3.054-3.449-2.395
			C133.283,35.588,132.935,34.733,132.176,34.363z"/>
		<path style="fill:#FFD5B8;" d="M101.758,62.585c-0.943,1.141-2.059,1.924-2.551,3.38c3.011,0.852,5.897,1.547,8.698,2.495
			c2.854,0.967,5.109,2.864,7.024,5.66c1.658-5.397,6.073-7.373,10.327-9.712c-0.713-0.264-1.267-0.469-1.803-0.667
			c-2.078,2.76-3.882,3.083-6.98,1.228c-0.886,1.722-2.234,2.536-4.251,2.207c-1.831-0.299-3.404-1.018-4.564-2.436
			c-0.933,0.708-0.116,2.394-1.626,2.369c-1.221-0.021-2.13-0.773-2.756-1.803C102.774,64.478,102.329,63.615,101.758,62.585z"/>
		<path style="fill:#FF4A90;" d="M135.979,52.872c2.126,1.59,3.491,3.69,4.818,6.041c0.85-0.902,1.626-1.64,2.301-2.46
			c1.118-1.357,1.164-5.087,0.08-5.151c-2.253-0.132-2.205-1.547-2.16-3.228C138.577,49.04,137.64,51.254,135.979,52.872z"/>
		<path style="fill:#FFFFFF;" d="M122.979,155.631c3.843-4.033,8.751-5.212,13.869-5.879c0.71-0.092,1.75,0.154,1.661-0.997
			c-0.056-0.728-0.85-0.965-1.558-1.014c-5.067-0.348-9.643,0.764-13.448,4.369C122.4,153.156,122.314,154.192,122.979,155.631z"/>
		<path style="fill:#FFD5B8;" d="M140.764,82.971c1.332-0.673,2.219-1.692,2.984-2.803c1.402-2.034,1.381-5.852,0.009-7.806
			c-0.663-0.944-1.565-1.562-2.723-1.212c-1.363,0.411-0.878,1.579-0.757,2.513c0.092,0.711,0.319,1.405,0.49,2.126
			c1.134-0.367,1.609-1.804,3.622-1.361C140.62,76.416,140.116,79.4,140.764,82.971z"/>
		<path style="fill:#FFFFFF;" d="M111.319,147.621c-0.069,0.79-0.395,1.713,0.465,1.892c3.259,0.678,5.991,2.231,8.23,4.915
			C121.118,150.109,116.515,146.648,111.319,147.621z"/>
		<path style="fill:#FFD5B8;" d="M162.888,103.427c1.443,2.57,3.501,4.717,3.354,8.205c2.194-3.088,2.262-5.649,0.525-7.79
			C165.751,102.591,164.559,102.356,162.888,103.427z"/>
		<path style="fill:#FFD5B8;" d="M88.75,80.798c0.003,3.44,2.532,6.811,5.131,7.041C93.711,84.482,91.978,82.212,88.75,80.798z"/>
		<path style="fill:#FFD5B8;" d="M92.719,81.466c-0.786-1.228,0.693-3.23-1.373-3.848c-0.607-0.182-1.668,0.267-1.709,1.141
			C89.543,80.759,91.75,80.402,92.719,81.466z"/>
		<path style="fill:#42210B;" d="M121.531,85.805c0.655,1.317,1.309,2.634,1.933,3.888c-0.18,0.251-0.321,0.492-0.348,0.479
			c-2.324-1.054-3.79,0.913-5.611,1.595c-2.556,0.957-4.578,0.399-5.607-1.766c4.523,1.72,7.939,1.077,9.101-4.384
			C121.177,85.68,121.354,85.742,121.531,85.805z"/>
		<path style="fill:#FFFFFF;" d="M129.03,71.757c-0.04,2.447-4.231,6.189-6.554,5.951c-0.897-0.092-1.507-0.532-1.59-1.589
			c-0.258-3.307,3.341-6.836,6.591-6.39C128.748,69.903,128.906,70.903,129.03,71.757z"/>
		<path style="fill:#FFFFFF;" d="M127.335,71.32c-3.253,0.648-4.211,1.592-4.463,4.445C124.825,74.671,126.947,74.004,127.335,71.32
			z"/>
		<path style="fill:#FFFFFF;" d="M107.401,78.612c-3.322,0.687-6.363-0.307-7.723-2.528c-0.452-0.738-0.824-1.537-0.385-2.371
			c0.472-0.898,1.396-0.814,2.239-0.767C105.028,73.142,107.435,75.474,107.401,78.612z"/>
		<path style="fill:#FFFFFF;" d="M100.755,74.663c1.307,2.16,2.808,2.907,5.002,2.46C104.556,75.267,102.97,74.446,100.755,74.663z"
			/>
	</g>
</g>
<g id="designed_by_freepik">
	<g>
		<g id="XMLID_319_">
			<g id="XMLID_338_">
				<path id="XMLID_346_" style="fill:#1D262D;" d="M260.104,465.465c-0.432,0.443-0.803,0.931-1.108,1.453l-0.465-0.241
					c-0.067-0.298-0.349-0.503-0.659-0.466c-0.331,0.039-0.568,0.339-0.529,0.67c0.039,0.331,0.339,0.568,0.67,0.529
					c0.065-0.008,0.127-0.026,0.183-0.052l0.452,0.234c-0.251,0.554-0.433,1.139-0.539,1.744l0.747,0.132
					c0.23-1.306,0.85-2.507,1.792-3.473L260.104,465.465z"/>
				<path id="XMLID_345_" style="fill:#1D262D;" d="M265.592,463.163c-0.171,0-0.341,0.006-0.51,0.017l-0.074-0.626
					c0.188-0.149,0.296-0.389,0.266-0.645c-0.046-0.393-0.402-0.674-0.795-0.628c-0.393,0.046-0.674,0.402-0.628,0.795
					c0.03,0.254,0.189,0.461,0.405,0.564l0.073,0.624c-0.714,0.116-1.403,0.332-2.06,0.646l0.327,0.684
					c0.934-0.447,1.942-0.673,2.995-0.673c0.496,0,0.993,0.053,1.475,0.158l0.161-0.741
					C266.692,463.222,266.142,463.163,265.592,463.163z"/>
				<path id="XMLID_344_" style="fill:#1D262D;" d="M272.194,465.711c0.331-0.04,0.566-0.341,0.526-0.672
					c-0.04-0.331-0.341-0.566-0.672-0.526c-0.309,0.038-0.535,0.304-0.53,0.609l-0.416,0.363c-0.418-0.43-0.89-0.813-1.408-1.139
					l-0.404,0.641c1.134,0.715,2.021,1.726,2.563,2.925l0.691-0.313c-0.251-0.554-0.568-1.072-0.942-1.545l0.402-0.351
					C272.065,465.716,272.129,465.719,272.194,465.711z"/>
				<path id="XMLID_343_" style="fill:#1D262D;" d="M265.044,473.372c-0.386,0.023-0.775,0.035-1.157,0.035
					c-0.88,0-1.733-0.061-2.478-0.179c-0.39-0.062-0.846-0.155-1.27-0.292c1.046,1.861,3.069,3.125,5.388,3.125
					c2.855,0,5.262-1.916,5.95-4.504c-0.682,0.449-1.505,0.825-2.459,1.123C267.839,473.047,266.464,473.286,265.044,473.372z"/>
				<path id="XMLID_339_" style="fill:#1D262D;" d="M265.592,464.68c-3.352,0-6.08,2.666-6.08,5.943
					c0,0.426,0.046,0.849,0.137,1.261c0.673,0.483,2.706,0.89,5.348,0.731c2.879-0.173,5.297-0.957,6.672-2.159
					c-0.005-0.195-0.021-0.39-0.045-0.582C271.244,466.913,268.65,464.68,265.592,464.68z M263.432,471.194
					c-1.02,0-1.85-0.83-1.85-1.85c0-1.02,0.83-1.85,1.85-1.85c1.02,0,1.85,0.83,1.85,1.85
					C265.282,470.365,264.452,471.194,263.432,471.194z M268.17,470.286c-0.75,0-1.36-0.61-1.36-1.36s0.61-1.361,1.36-1.361
					c0.75,0,1.361,0.61,1.361,1.361S268.92,470.286,268.17,470.286z"/>
			</g>
			<path id="XMLID_336_" style="fill:#1D262D;" d="M281.595,466.547c-0.295-0.116-0.805-0.309-1.382-0.237
				c-0.551,0.069-0.844,0.341-0.844,1.007v0.866h2.228v1.717h-2.228v5.455h-1.932v-5.455h-1.34v-1.717h1.34v-0.888
				c0-1.68,0.896-2.783,2.568-2.783c0.643,0,1.157,0.122,1.59,0.308L281.595,466.547z"/>
			<path id="XMLID_334_" style="fill:#1D262D;" d="M286.298,469.879c-0.177-0.03-0.358-0.046-0.526-0.046
				c-0.896,0-1.51,0.548-1.51,1.614v3.908h-1.932v-7.172h1.873v0.785c0.451-0.673,1.14-0.977,2.021-0.977
				c0.414,0,0.848,0.128,1.094,0.337L286.298,469.879z"/>
			<path id="XMLID_331_" style="fill:#1D262D;" d="M293.965,471.757c0,0.222-0.015,0.489-0.037,0.651h-5.085
				c0.207,1.036,0.933,1.488,1.843,1.488c0.622,0,1.295-0.252,1.813-0.688l1.132,1.243c-0.814,0.748-1.85,1.088-3.057,1.088
				c-2.198,0-3.723-1.495-3.723-3.753c0-2.258,1.48-3.797,3.627-3.797C292.544,467.99,293.958,469.522,293.965,471.757z
				 M288.851,471.091h3.175c-0.177-0.918-0.733-1.436-1.562-1.436C289.554,469.655,289.021,470.203,288.851,471.091z"/>
			<path id="XMLID_328_" style="fill:#1D262D;" d="M301.618,471.757c0,0.222-0.015,0.489-0.037,0.651h-5.085
				c0.207,1.036,0.933,1.488,1.843,1.488c0.622,0,1.295-0.252,1.813-0.688l1.132,1.243c-0.814,0.748-1.85,1.088-3.057,1.088
				c-2.198,0-3.723-1.495-3.723-3.753c0-2.258,1.48-3.797,3.627-3.797C300.197,467.99,301.611,469.522,301.618,471.757z
				 M296.504,471.091h3.175c-0.178-0.918-0.733-1.436-1.562-1.436C297.207,469.655,296.674,470.203,296.504,471.091z"/>
			<path id="XMLID_325_" style="fill:#1D262D;" d="M309.964,471.764c0,2.154-1.495,3.775-3.471,3.775
				c-0.962,0-1.643-0.378-2.109-0.933v3.708h-1.924v-10.133h1.887v0.792c0.466-0.585,1.155-0.984,2.139-0.984
				C308.469,467.99,309.964,469.61,309.964,471.764z M304.287,471.764c0,1.132,0.747,1.976,1.843,1.976
				c1.14,0,1.85-0.881,1.85-1.976c0-1.095-0.71-1.976-1.85-1.976C305.035,469.788,304.287,470.632,304.287,471.764z"/>
			<path id="XMLID_322_" style="fill:#1D262D;" d="M313.068,465.836c0,0.696-0.54,1.229-1.236,1.229
				c-0.696,0-1.229-0.533-1.229-1.229c0-0.696,0.533-1.243,1.229-1.243C312.527,464.592,313.068,465.14,313.068,465.836z
				 M312.809,475.354h-1.932v-7.172h1.932V475.354z"/>
			<path id="XMLID_320_" style="fill:#1D262D;" d="M316.032,470.736l2.701-2.554h2.368l-3.479,3.375l3.501,3.797h-2.376
				l-2.716-2.901v2.901H314.1v-10.658h1.932V470.736z"/>
		</g>
		<g>
			<path style="fill:#1D262D;" d="M184.412,475.289v-1.055c-0.527,0.718-1.391,1.23-2.387,1.23c-1.846,0-3.149-1.406-3.149-3.706
				c0-2.256,1.289-3.721,3.149-3.721c0.952,0,1.816,0.469,2.387,1.245v-3.765h1.099v9.77H184.412z M184.412,473.37v-3.208
				c-0.395-0.615-1.245-1.143-2.124-1.143c-1.421,0-2.27,1.172-2.27,2.739c0,1.567,0.85,2.724,2.27,2.724
				C183.168,474.483,184.017,473.986,184.412,473.37z"/>
			<path style="fill:#1D262D;" d="M186.932,471.744c0-2.051,1.465-3.706,3.486-3.706c2.139,0,3.398,1.67,3.398,3.794v0.279h-5.727
				c0.088,1.333,1.025,2.446,2.549,2.446c0.805,0,1.626-0.322,2.182-0.894l0.527,0.718c-0.703,0.703-1.655,1.084-2.812,1.084
				C188.44,475.465,186.932,473.956,186.932,471.744z M190.403,468.947c-1.509,0-2.256,1.274-2.314,2.358h4.643
				C192.718,470.25,192.015,468.947,190.403,468.947z"/>
			<path style="fill:#1D262D;" d="M194.607,474.351l0.571-0.791c0.469,0.542,1.362,1.011,2.329,1.011c1.084,0,1.67-0.513,1.67-1.216
				c0-1.714-4.38-0.659-4.38-3.281c0-1.098,0.952-2.036,2.636-2.036c1.201,0,2.051,0.454,2.622,1.026l-0.513,0.762
				c-0.424-0.513-1.201-0.894-2.109-0.894c-0.967,0-1.567,0.483-1.567,1.113c0,1.552,4.38,0.527,4.38,3.281
				c0,1.187-0.952,2.138-2.783,2.138C196.306,475.465,195.325,475.113,194.607,474.351z"/>
			<path style="fill:#1D262D;" d="M201.477,466.471c0-0.41,0.337-0.747,0.732-0.747c0.41,0,0.747,0.337,0.747,0.747
				c0,0.41-0.337,0.732-0.747,0.732C201.814,467.203,201.477,466.881,201.477,466.471z M201.667,475.289v-7.075h1.099v7.075H201.667
				z"/>
			<path style="fill:#1D262D;" d="M204.582,477.105l0.556-0.82c0.586,0.703,1.289,0.967,2.3,0.967c1.172,0,2.27-0.571,2.27-2.124
				v-1.011c-0.513,0.718-1.377,1.26-2.373,1.26c-1.845,0-3.149-1.377-3.149-3.662c0-2.27,1.289-3.677,3.149-3.677
				c0.952,0,1.802,0.469,2.373,1.245v-1.069h1.098v6.87c0,2.344-1.641,3.076-3.369,3.076
				C206.237,478.16,205.417,477.926,204.582,477.105z M209.709,473.253v-3.091c-0.381-0.615-1.23-1.143-2.109-1.143
				c-1.421,0-2.27,1.128-2.27,2.695c0,1.553,0.849,2.695,2.27,2.695C208.478,474.41,209.328,473.868,209.709,473.253z"/>
			<path style="fill:#1D262D;" d="M217.413,475.289v-4.629c0-1.245-0.63-1.641-1.582-1.641c-0.865,0-1.685,0.527-2.095,1.099v5.17
				h-1.099v-7.075h1.099v1.025c0.498-0.586,1.465-1.201,2.519-1.201c1.48,0,2.256,0.747,2.256,2.285v4.966H217.413z"/>
			<path style="fill:#1D262D;" d="M219.932,471.744c0-2.051,1.465-3.706,3.486-3.706c2.139,0,3.398,1.67,3.398,3.794v0.279h-5.727
				c0.088,1.333,1.025,2.446,2.549,2.446c0.806,0,1.626-0.322,2.183-0.894l0.527,0.718c-0.703,0.703-1.655,1.084-2.812,1.084
				C221.441,475.465,219.932,473.956,219.932,471.744z M223.404,468.947c-1.509,0-2.256,1.274-2.314,2.358h4.643
				C225.718,470.25,225.015,468.947,223.404,468.947z"/>
			<path style="fill:#1D262D;" d="M233.35,475.289v-1.055c-0.527,0.718-1.392,1.23-2.388,1.23c-1.846,0-3.149-1.406-3.149-3.706
				c0-2.256,1.289-3.721,3.149-3.721c0.952,0,1.817,0.469,2.388,1.245v-3.765h1.098v9.77H233.35z M233.35,473.37v-3.208
				c-0.396-0.615-1.245-1.143-2.124-1.143c-1.421,0-2.27,1.172-2.27,2.739c0,1.567,0.849,2.724,2.27,2.724
				C232.105,474.483,232.954,473.986,233.35,473.37z"/>
			<path style="fill:#1D262D;" d="M239.692,475.289v-9.77h1.098v3.765c0.572-0.776,1.421-1.245,2.388-1.245
				c1.845,0,3.149,1.465,3.149,3.721c0,2.299-1.304,3.706-3.149,3.706c-0.996,0-1.86-0.513-2.388-1.23v1.055H239.692z
				 M242.9,474.483c1.436,0,2.285-1.157,2.285-2.724c0-1.568-0.85-2.739-2.285-2.739c-0.864,0-1.728,0.527-2.109,1.143v3.208
				C241.171,473.986,242.036,474.483,242.9,474.483z"/>
			<path style="fill:#1D262D;" d="M247.528,477.061c0.161,0.073,0.425,0.117,0.601,0.117c0.483,0,0.805-0.161,1.055-0.747
				l0.469-1.069l-2.959-7.148h1.187l2.358,5.8l2.344-5.8h1.201l-3.545,8.51c-0.425,1.025-1.143,1.421-2.08,1.435
				c-0.234,0-0.601-0.044-0.806-0.103L247.528,477.061z"/>
		</g>
	</g>
</g>
</svg>
